<?xml version="1.0" encoding="utf-8"?>
<!-- Generator: Adobe Illustrator 16.0.0, SVG Export Plug-In . SVG Version: 6.00 Build 0)  -->
<!DOCTYPE svg PUBLIC "-//W3C//DTD SVG 1.1//EN" "http://www.w3.org/Graphics/SVG/1.1/DTD/svg11.dtd">
<svg version="1.1" id="Layer_1" xmlns="http://www.w3.org/2000/svg" xmlns:xlink="http://www.w3.org/1999/xlink" x="0px" y="0px"
	 width="25.125px" height="22.368px" viewBox="0 0 25.125 22.368" enable-background="new 0 0 25.125 22.368" xml:space="preserve">
<path fill="#C1B385" d="M4.771,13.894c0.06,0.582,0.373,1.104,0.821,1.456c-0.251,0.297-0.402,0.679-0.402,1.095v1.547
	c0,0.674,0.389,1.253,0.959,1.525c-0.032,0.155-0.05,0.317-0.05,0.482c0,1.306,1.063,2.369,2.369,2.369
	c1.307,0,2.369-1.063,2.369-2.369c0-0.105-0.009-0.212-0.021-0.315h3.896c-0.015,0.104-0.021,0.21-0.021,0.315
	c0,1.306,1.063,2.369,2.369,2.369s2.369-1.063,2.369-2.369c0-1.307-1.063-2.369-2.369-2.369c-0.793,0-1.495,0.392-1.926,0.99h-4.74
	c-0.431-0.599-1.133-0.99-1.926-0.99c-0.762,0-1.439,0.362-1.873,0.922c-0.205-0.104-0.343-0.315-0.343-0.561v-1.547
	c0-0.347,0.282-0.628,0.631-0.628c0.001,0,0.002-0.003,0.004-0.003c0.003,0,0.007,0.003,0.01,0.003H19.32
	c1.027,0,2.091-0.763,2.422-1.736l3.157-9.268c0.179-0.524,0.116-1.053-0.167-1.451c-0.284-0.397-0.765-0.626-1.319-0.626H5.679
	c-0.343,0-0.664,0.088-0.942,0.251L4.484,0.479C4.457,0.208,4.229,0,3.956,0H0.531C0.237,0,0,0.238,0,0.531
	c0,0.294,0.237,0.531,0.531,0.531h2.943L4.771,13.894z M17.061,18.692c0.721,0,1.306,0.586,1.306,1.307
	c0,0.72-0.585,1.306-1.306,1.306s-1.306-0.586-1.306-1.306C15.755,19.278,16.34,18.692,17.061,18.692z M8.469,18.692
	c0.721,0,1.307,0.586,1.307,1.307c0,0.72-0.586,1.306-1.307,1.306c-0.72,0-1.306-0.586-1.306-1.306
	C7.163,19.278,7.749,18.692,8.469,18.692z M4.904,4.668C4.88,4.433,4.948,4.212,5.096,4.048c0.146-0.161,0.353-0.249,0.583-0.249
	h17.734c0.209,0,0.372,0.063,0.456,0.181c0.083,0.117,0.092,0.292,0.023,0.491l-3.156,9.268c-0.184,0.541-0.845,1.014-1.416,1.014
	H6.897c-0.526,0-1.016-0.442-1.069-0.966L4.904,4.668z"/>
</svg>
