<?xml version="1.0" encoding="utf-8"?>
<!-- Generator: Adobe Illustrator 16.0.0, SVG Export Plug-In . SVG Version: 6.00 Build 0)  -->
<!DOCTYPE svg PUBLIC "-//W3C//DTD SVG 1.1//EN" "http://www.w3.org/Graphics/SVG/1.1/DTD/svg11.dtd">
<svg version="1.1" id="Layer_1" xmlns="http://www.w3.org/2000/svg" xmlns:xlink="http://www.w3.org/1999/xlink" x="0px" y="0px"
	 width="35px" height="11.376px" viewBox="0 0 35 11.376" enable-background="new 0 0 35 11.376" xml:space="preserve">
<g>
	<polygon fill="#0078A9" points="23.826,11.366 27.172,11.366 27.172,10.491 24.85,10.491 24.85,9.668 27.107,9.668 27.107,8.877 
		24.85,8.877 24.85,8.095 27.172,8.095 27.172,7.197 23.826,7.197 	"/>
	<path fill="#0078A9" d="M33.637,8.821c-0.075,0.001-0.633-0.028-0.717-0.028c-0.242-0.023-0.433-0.075-0.433-0.331
		c0-0.404,0.387-0.358,0.744-0.361h1.573V7.207h-2.149c-0.671,0-1.22,0.427-1.22,1.209c0,0.688,0.264,1.253,1.4,1.283
		c0.075,0.001,0.573,0.029,0.707,0.048c0.303,0.032,0.377,0.153,0.377,0.344c0,0.4-0.423,0.4-0.707,0.4h-1.675v0.894h2.149
		c0.67,0,1.313-0.419,1.313-1.2C35,9.515,34.895,8.886,33.637,8.821z"/>
	<path fill="#0078A9" d="M29.783,8.821c-0.074,0.001-0.633-0.028-0.717-0.028c-0.242-0.023-0.433-0.075-0.433-0.331
		c0-0.404,0.386-0.358,0.745-0.361h1.572V7.207h-2.149c-0.671,0-1.22,0.427-1.22,1.209c0,0.688,0.264,1.253,1.4,1.283
		c0.074,0.001,0.572,0.029,0.708,0.048c0.302,0.032,0.377,0.153,0.377,0.344c0,0.4-0.424,0.4-0.708,0.4h-1.675v0.894h2.149
		c0.67,0,1.313-0.419,1.313-1.2C31.146,9.515,31.041,8.886,29.783,8.821z"/>
	<path fill="#0078A9" d="M17.646,7.206h-3.593L12.881,8.5l-1.135-1.303H7.711v4.169h3.905l1.228-1.377l1.201,1.387h1.964V9.96h1.377
		c0.53,0,1.498-0.018,1.498-1.479C18.884,7.438,18.148,7.206,17.646,7.206z M11.08,10.491H8.721V9.668h2.258V8.877H8.721V8.095
		l2.49,0.006l0.996,1.135L11.08,10.491z M14.994,10.976l-1.471-1.74l1.471-1.629V10.976z M17.302,9.102h-1.274V8.101h1.278
		c0.429,0,0.563,0.275,0.563,0.479C17.869,8.859,17.721,9.102,17.302,9.102z"/>
	<path fill="#0078A9" d="M23.298,8.323c0-0.893-0.726-1.116-1.229-1.116h-2.661v4.169h1.023V9.905h1.341
		c0.354,0,0.493,0.354,0.502,0.707l0.028,0.764h0.995l-0.037-0.856c0-0.671-0.186-0.987-0.67-1.043
		C23.149,9.198,23.298,8.825,23.298,8.323z M21.707,9.046h-1.275V8.101h1.279c0.429,0,0.563,0.275,0.563,0.479
		C22.274,8.859,22.126,9.046,21.707,9.046z"/>
	<rect x="19.818" fill="#0078A9" width="1.023" height="4.174"/>
	<polygon fill="#0078A9" points="14.784,3.299 12.463,3.299 12.463,2.476 14.72,2.476 14.72,1.685 12.463,1.685 12.463,0.902 
		14.784,0.902 14.784,0.005 11.438,0.005 11.438,4.174 14.784,4.174 	"/>
	<path fill="#0078A9" d="M19.282,1.12c0-0.893-0.726-1.115-1.229-1.115h-2.66v4.169h1.023V2.703h1.34
		c0.354,0,0.493,0.354,0.502,0.707l0.029,0.764h0.995l-0.037-0.856c0-0.67-0.187-0.986-0.67-1.043
		C19.134,1.996,19.282,1.623,19.282,1.12z M17.69,1.843h-1.274V0.898h1.279c0.429,0,0.563,0.274,0.563,0.479
		C18.258,1.657,18.109,1.843,17.69,1.843z"/>
	<path fill="#0078A9" d="M9.688,1.13v3.044h1.024V0.005H9.078L7.822,2.801L6.57,0.005H4.965V4.02L3.178,0.005H1.824L0,4.174h1.079
		l0.399-0.931h2.043l0.406,0.931h2.061V1.079l1.368,3.095h0.931L9.688,1.13z M1.865,2.344l0.611-1.458l0.636,1.458H1.865z"/>
	<path fill="#0078A9" d="M22.974,4.176h1.35l0.4-0.931h2.042l0.405,0.931h2.019V1.123l1.843,3.053h1.396V0.003h-1.023V2.89
		L29.68,0.003h-1.513v3.915l-1.745-3.913h-1.354l-1.41,3.229c0,0-0.595,0-0.655-0.015c-0.248-0.051-0.633-0.225-0.638-0.96V1.957
		c0-0.978,0.531-1.049,1.211-1.049h0.633V0.003h-1.337c-0.466,0-1.478,0.354-1.512,2.067C21.336,3.225,21.839,4.176,22.974,4.176z
		 M25.728,0.888l0.642,1.458h-1.251L25.728,0.888z"/>
</g>
</svg>
