<?xml version="1.0" encoding="utf-8"?>
<!-- Generator: Adobe Illustrator 16.0.0, SVG Export Plug-In . SVG Version: 6.00 Build 0)  -->
<!DOCTYPE svg PUBLIC "-//W3C//DTD SVG 1.1//EN" "http://www.w3.org/Graphics/SVG/1.1/DTD/svg11.dtd">
<svg version="1.1" id="Layer_1" xmlns="http://www.w3.org/2000/svg" xmlns:xlink="http://www.w3.org/1999/xlink" x="0px" y="0px"
	 width="15px" height="10.563px" viewBox="0 0 15 10.563" enable-background="new 0 0 15 10.563" xml:space="preserve">
<path fill="#A2925E" d="M13.592,0H1.405C0.632,0,0,0.632,0,1.406v7.751c0,0.776,0.632,1.405,1.405,1.405h12.187
	c0.776,0,1.408-0.629,1.408-1.405V1.406C15,0.632,14.368,0,13.592,0z M1.074,1.078l3.882,3.743L0.938,7.485V1.406
	C0.938,1.278,0.991,1.162,1.074,1.078z M2.283,0.939h10.435L8.077,5.413c-0.325,0.312-0.833,0.312-1.159,0L2.283,0.939z
	 M13.925,1.078c0.084,0.084,0.137,0.2,0.137,0.328v6.103l-4.037-2.67L13.925,1.078z M13.592,9.627H1.405
	c-0.257,0-0.467-0.211-0.467-0.47V8.609l4.71-3.12L6.27,6.088C6.614,6.42,7.056,6.585,7.5,6.585c0.441,0,0.884-0.165,1.229-0.497
	l0.604-0.583l4.728,3.129v0.523C14.062,9.416,13.851,9.627,13.592,9.627z"/>
</svg>
