<?xml version="1.0" encoding="utf-8"?>
<!-- Generator: Adobe Illustrator 16.0.0, SVG Export Plug-In . SVG Version: 6.00 Build 0)  -->
<!DOCTYPE svg PUBLIC "-//W3C//DTD SVG 1.1//EN" "http://www.w3.org/Graphics/SVG/1.1/DTD/svg11.dtd">
<svg version="1.1" id="Layer_1" xmlns="http://www.w3.org/2000/svg" xmlns:xlink="http://www.w3.org/1999/xlink" x="0px" y="0px"
	 width="210.167px" height="55.184px" viewBox="0 0 210.167 55.184" enable-background="new 0 0 210.167 55.184"
	 xml:space="preserve">
<g>
	<path fill="#A2925E" d="M85.667,27.295h1.209v-0.719h-1.405l-2.81-10.322H77.24v0.686h1.273l-2.939,9.637h-1.404v0.719h1.209
		l-2.908,9.57h-1.307v0.719h3.365v-0.719h-1.273l2.025-6.696h7.609l1.83,6.696h-1.273v0.719h6.042v-0.719h-1.176L85.667,27.295z
		 M75.509,29.418l3.789-12.511l3.396,12.511H75.509z"/>
	<polygon fill="#A2925E" points="92.167,16.973 93.376,16.973 93.376,26.576 92.167,26.576 92.167,27.295 93.376,27.295 
		93.376,36.865 92.167,36.865 92.167,37.584 98.275,37.584 98.275,36.865 97.035,36.865 97.035,27.295 103.666,27.295 
		103.666,26.576 97.035,26.576 97.035,16.973 105.658,16.973 105.658,20.697 106.441,20.697 106.441,16.254 92.167,16.254 	"/>
	<path fill="#A2925E" d="M119.867,27.033c2.352-0.653,3.201-2.516,3.201-5.259c0-3.397-1.307-5.521-5.357-5.521h-9.146v0.719h1.209
		v9.604h-1.209v0.719h1.209v9.57h-1.209v0.719h6.076v-0.719h-1.209V16.973h4.148c3.396,0,4.703,1.438,4.703,4.802
		s-1.307,4.802-4.703,4.802h-2.875v0.719h1.602l3.463,10.289h4.736v-0.719h-1.242L119.867,27.033z"/>
	<path fill="#A2925E" d="M135.087,16.058c-6.238,0-8.492,5.194-8.59,10.519h-1.209v0.719h1.209
		c0.098,6.141,2.285,10.518,8.59,10.518c6.238,0,8.492-4.377,8.591-10.518h1.208v-0.719h-1.208
		C143.58,21.252,141.326,16.058,135.087,16.058z M139.531,35.918c-1.145,0.751-2.613,1.176-4.443,1.176h-0.064
		c-1.764,0-3.234-0.393-4.377-1.176V18.182c1.143-0.883,2.58-1.405,4.441-1.405s3.299,0.522,4.443,1.405V35.918z"/>
	<path fill="#A2925E" d="M155.763,16.254h-7.938v0.719h1.209v9.604h-1.209v0.719h1.209v9.57h-1.209v0.719h7.938
		c5.979,0,7.546-3.92,7.546-10.616S161.742,16.254,155.763,16.254z M155.568,36.865h-2.875V16.973h2.875
		c5.455,0,6.957,3.463,6.957,9.995S161.023,36.865,155.568,36.865z"/>
	<polygon fill="#A2925E" points="166.576,16.973 167.783,16.973 167.783,26.576 166.576,26.576 166.576,27.295 167.783,27.295 
		167.783,36.865 166.576,36.865 166.576,37.584 172.65,37.584 172.65,36.865 171.442,36.865 171.442,27.295 172.65,27.295 
		172.65,26.576 171.442,26.576 171.442,16.973 172.65,16.973 172.65,16.254 166.576,16.254 	"/>
	<polygon fill="#A2925E" points="192.509,20.599 192.509,16.287 175.263,16.287 175.263,20.599 176.046,20.599 176.046,16.973 
		182.057,16.973 182.057,26.576 180.849,26.576 180.849,27.295 182.057,27.295 182.057,36.865 180.849,36.865 180.849,37.584 
		186.923,37.584 186.923,36.865 185.716,36.865 185.716,27.295 186.923,27.295 186.923,26.576 185.716,26.576 185.716,16.973 
		191.726,16.973 191.726,20.599 	"/>
	<path fill="#A2925E" d="M208.908,36.865l-2.646-9.57h1.209v-0.719h-1.404l-2.811-10.322h-5.422v0.686h1.274l-2.94,9.637h-1.404
		v0.719h1.209l-2.907,9.57h-1.307v0.719h3.364v-0.719h-1.273l2.025-6.696h7.61l1.829,6.696h-1.273v0.719h6.043v-0.719H208.908z
		 M196.103,29.418l3.789-12.511l3.396,12.511H196.103z"/>
	<path fill="#A2925E" d="M27.586,2.031c-14.095,0-25.562,11.466-25.562,25.561s11.467,25.561,25.562,25.561
		c0.24,0,0.435-0.194,0.435-0.435V41.061c0.635,0.339,1.849,0.879,3.151,0.879c0,0-0.513-0.009-0.922-1.242
		c2.595-0.394,4.452-1.375,5.537-2.935c2.334-3.353,0.774-8.801-0.845-13.173c-1.18-3.186-1.369-6.229-1.395-7.402v-0.856
		c0-0.099-0.042-0.193-0.117-0.26c-0.074-0.065-0.173-0.098-0.272-0.086c-0.067,0.008-0.786,0.097-1.882,0.368v-2.669
		c0-0.108-0.051-0.21-0.136-0.276c-0.085-0.065-0.197-0.088-0.301-0.061c-0.921,0.245-1.793,0.622-2.592,1.059
		c-0.434-0.18-1.659-0.59-3.828-0.59c-0.567,0-1.167,0.028-1.781,0.084c-0.179,0.018-0.316,0.168-0.316,0.348v3.396
		c-0.8-0.157-1.325-0.194-1.637-0.194c-0.216,0-0.324,0.018-0.352,0.023c-0.183,0.034-0.306,0.207-0.279,0.392
		c0.314,2.163-0.457,6.347-0.52,6.679c-1.261,2.188-2.111,4.955-2.111,8.439c-0.006,0.118-0.111,2.906,2.042,5.164
		c1.292,1.355,3.105,2.213,5.405,2.564c-0.409,1.22-0.918,1.229-0.918,1.229c1.336,0,2.581-0.569,3.2-0.906V52.28
		C13.736,52.045,2.895,41.061,2.895,27.592c0-13.614,11.076-24.69,24.691-24.69c13.614,0,24.69,11.076,24.69,24.69
		c0,11.61-7.896,21.512-19.2,24.078c-0.234,0.053-0.381,0.286-0.328,0.521c0.053,0.234,0.287,0.382,0.521,0.328
		c5.558-1.262,10.604-4.412,14.207-8.871c3.657-4.524,5.671-10.227,5.671-16.056C53.146,13.497,41.68,2.031,27.586,2.031z
		 M33.539,34.353V34.35c0.005-0.129,0.008-0.259,0.008-0.393V22.394c0.191,0.784,0.434,1.606,0.741,2.438
		c1.561,4.213,3.076,9.444,0.927,12.533c-0.901,1.295-2.43,2.149-4.558,2.556c0.314-0.193,0.638-0.435,0.95-0.731
		C32.681,38.224,33.539,36.716,33.539,34.353z M30.58,14.15v2.381c-0.056,0.019-0.12,0.039-0.19,0.063
		c-1.034,0.302-2.274,0.744-3.579,1.382c-0.421,0.196-0.815,0.397-1.142,0.597c-0.417-0.141-0.805-0.265-1.166-0.373
		c0.402-0.41,1.087-1.074,1.912-1.734C27.532,15.588,28.979,14.66,30.58,14.15z M23.017,14.569c0.483-0.037,0.953-0.056,1.401-0.056
		c1.446,0,2.44,0.192,3.028,0.357c-0.344,0.216-0.679,0.448-0.998,0.687c-1.375,1.012-2.351,2.029-2.708,2.424
		c-0.258-0.07-0.5-0.133-0.724-0.186V14.569z M20.786,18.148c0.314,0.009,0.901,0.063,1.841,0.272l1.114,0.282
		c0.016,0.005,0.031,0.009,0.047,0.014l1.081,0.339c-1.008,0.64-2.926,2.008-4.377,3.949C20.695,21.596,20.914,19.597,20.786,18.148
		z M19.976,37.674c-1.949-2.036-1.859-4.633-1.858-4.674c0-3.098,0.671-5.811,2-8.125c0.024-0.023,0.046-0.052,0.063-0.084
		c0.05-0.096,0.103-0.19,0.157-0.285c0.713-1.157,1.598-2.21,2.652-3.156c0.671-0.596,1.32-1.075,1.833-1.425
		c0.267-0.179,0.54-0.354,0.821-0.523c0.511-0.307,1.023-0.58,1.527-0.823c1.154-0.529,2.536-1.018,3.294-1.274
		c1.065-0.317,1.916-0.487,2.382-0.566c0,0.11,0,0.259,0.004,0.446l-0.008,17.058c-0.064,2.359-0.915,3.786-1.929,4.646
		c-1.497,1.206-3.342,1.303-3.502,1.31C24.079,40.196,21.577,39.348,19.976,37.674z"/>
	<path fill="#A2925E" d="M31.094,17.744c-0.03-0.092-0.128-0.142-0.22-0.112c-0.048,0.016-4.871,1.608-8.028,5.025
		c-0.065,0.071-0.061,0.181,0.01,0.246c0.033,0.03,0.076,0.046,0.118,0.046c0.047,0,0.094-0.019,0.128-0.056
		c3.095-3.349,7.833-4.915,7.88-4.931C31.073,17.934,31.123,17.835,31.094,17.744z"/>
	<path fill="#A2925E" d="M33.735,37.959c0.046,0,0.091-0.018,0.125-0.054c2.256-2.338,1.599-6.46,1.57-6.634
		c-0.016-0.095-0.105-0.158-0.201-0.143c-0.095,0.016-0.159,0.105-0.143,0.2c0.007,0.04,0.656,4.124-1.477,6.335
		c-0.067,0.069-0.065,0.18,0.004,0.246C33.648,37.943,33.692,37.959,33.735,37.959z"/>
	<path fill="#A2925E" d="M26.078,15.297c0.019,0.006,0.037,0.009,0.056,0.009c0.072,0,0.141-0.046,0.165-0.118
		c0.03-0.091-0.019-0.189-0.109-0.221c-1.074-0.361-2.652-0.161-2.719-0.152c-0.095,0.013-0.162,0.1-0.15,0.195
		c0.012,0.095,0.099,0.16,0.195,0.149C23.531,15.157,25.081,14.961,26.078,15.297z"/>
	<path fill="#A2925E" d="M25.337,18.104c0.034,0.039,0.082,0.059,0.13,0.059c0.041,0,0.083-0.014,0.116-0.044
		c0.021-0.019,2.088-1.851,3.418-2.559c0.085-0.045,0.117-0.15,0.072-0.235s-0.15-0.117-0.235-0.072
		c-1.366,0.727-3.4,2.529-3.486,2.606C25.279,17.922,25.273,18.032,25.337,18.104z"/>
	<path fill="#A2925E" d="M21.188,18.781c-0.096,0.009-0.167,0.094-0.158,0.188c0.001,0.017,0.14,1.63-0.111,2.692
		c-0.022,0.094,0.035,0.188,0.129,0.209c0.014,0.004,0.027,0.005,0.04,0.005c0.079,0,0.15-0.054,0.169-0.134
		c0.264-1.117,0.125-2.734,0.12-2.803C21.368,18.844,21.283,18.774,21.188,18.781z"/>
	<path fill="#A2925E" d="M35.762,44.365c-0.204-0.433-0.858-0.621-1.23-0.695c-0.636-0.125-1.409-0.125-2.225,0.006
		c-1.711,0.275-2.835,0.89-3.343,1.826c-0.456,0.84-0.26,1.66-0.155,1.975c0.003,0.011,0.008,0.021,0.012,0.031l0.088,0.196
		c0.003,0.008,0.007,0.015,0.011,0.022c0.351,0.653,0.993,1.124,1.717,1.259c0.152,0.028,0.311,0.043,0.472,0.043
		c0.977,0,2.01-0.512,3.073-1.522C35.604,46.153,36.121,45.125,35.762,44.365z M33.702,47.001c-1.054,1.002-2.091,1.458-2.937,1.3
		c-0.567-0.105-0.916-0.451-1.098-0.696l3.246-1.538c0.174-0.082,0.248-0.29,0.166-0.464c-0.082-0.173-0.29-0.248-0.464-0.165
		l-3.217,1.524c-0.047-0.29-0.049-0.707,0.179-1.128c0.399-0.737,1.354-1.231,2.84-1.471c0.733-0.117,1.426-0.119,1.979-0.01
		c0.531,0.105,0.716,0.271,0.736,0.31C35.228,44.865,35.28,45.5,33.702,47.001z"/>
	<path fill="#A2925E" d="M23.918,49.029L23.918,49.029c0.161,0,0.319-0.015,0.471-0.043c0.725-0.135,1.366-0.605,1.717-1.259
		c0.004-0.008,0.008-0.015,0.011-0.021l0.089-0.196c0.005-0.011,0.009-0.021,0.013-0.032c0.104-0.313,0.3-1.134-0.155-1.975
		c-0.507-0.937-1.632-1.551-3.343-1.826c-0.816-0.131-1.588-0.131-2.225-0.006c-0.372,0.074-1.025,0.263-1.23,0.696
		c-0.358,0.76,0.158,1.786,1.58,3.14C21.908,48.517,22.942,49.029,23.918,49.029z M19.895,44.664
		c0.021-0.039,0.206-0.205,0.736-0.311c0.27-0.054,0.571-0.081,0.896-0.081c0.342,0,0.707,0.031,1.083,0.091
		c1.486,0.239,2.442,0.733,2.841,1.471c0.229,0.421,0.226,0.838,0.179,1.128l-3.218-1.524c-0.174-0.082-0.381-0.008-0.464,0.165
		c-0.082,0.174-0.008,0.382,0.166,0.464l3.246,1.538c-0.182,0.245-0.531,0.591-1.099,0.696c-0.11,0.021-0.226,0.031-0.343,0.031l0,0
		c-0.781,0-1.677-0.46-2.593-1.331C19.747,45.5,19.8,44.865,19.895,44.664z"/>
	<path fill="#A2925E" d="M27.585,0.09c-15.165,0-27.502,12.337-27.502,27.502s12.338,27.502,27.502,27.502
		c15.165,0,27.502-12.337,27.502-27.502S42.75,0.09,27.585,0.09z M27.585,54.399c-14.781,0-26.806-12.025-26.806-26.807
		S12.805,0.785,27.585,0.785s26.806,12.025,26.806,26.807S42.366,54.399,27.585,54.399z"/>
</g>
</svg>
