<?xml version="1.0" encoding="utf-8"?>
<!-- Generator: Adobe Illustrator 16.0.0, SVG Export Plug-In . SVG Version: 6.00 Build 0)  -->
<!DOCTYPE svg PUBLIC "-//W3C//DTD SVG 1.1//EN" "http://www.w3.org/Graphics/SVG/1.1/DTD/svg11.dtd">
<svg version="1.1" id="Layer_1" xmlns="http://www.w3.org/2000/svg" xmlns:xlink="http://www.w3.org/1999/xlink" x="0px" y="0px"
	 width="12px" height="18.295px" viewBox="0 0 12 18.295" enable-background="new 0 0 12 18.295" xml:space="preserve">
<g>
	<g>
		<path fill="#A2925E" d="M6.033,8.675c-0.687,0-1.331-0.267-1.816-0.752c-1-1.002-1-2.63,0-3.631
			C4.702,3.808,5.347,3.54,6.033,3.54l0,0c0.685,0,1.33,0.268,1.815,0.752c1,1.001,1,2.629,0,3.631
			C7.363,8.408,6.718,8.675,6.033,8.675z M6.033,4.657c-0.388,0-0.752,0.151-1.025,0.425c-0.565,0.565-0.565,1.484,0,2.05
			c0.273,0.274,0.638,0.425,1.025,0.425c0.387,0,0.751-0.15,1.024-0.425c0.565-0.565,0.565-1.484,0-2.05
			C6.784,4.809,6.42,4.657,6.033,4.657z"/>
	</g>
	<g>
		<path fill="#A2925E" d="M6.026,18.295c-0.466,0-1.357-0.213-2.079-1.634C3.111,15.013,0,8.158,0,6c0-3.309,2.691-6,6-6
			c3.308,0,6,2.691,6,6c0,2.135-3.104,9.077-3.897,10.658C7.573,17.714,6.836,18.295,6.026,18.295z M6,1.117
			c-2.692,0-4.883,2.19-4.883,4.883c0,1.695,2.717,7.965,3.827,10.154c0.329,0.65,0.724,1.023,1.082,1.023
			c0.354,0,0.757-0.382,1.077-1.021C8.074,14.222,10.882,7.722,10.882,6C10.882,3.308,8.691,1.117,6,1.117z"/>
	</g>
</g>
</svg>
