<?xml version="1.0" encoding="utf-8"?>
<!-- Generator: Adobe Illustrator 16.0.0, SVG Export Plug-In . SVG Version: 6.00 Build 0)  -->
<!DOCTYPE svg PUBLIC "-//W3C//DTD SVG 1.1//EN" "http://www.w3.org/Graphics/SVG/1.1/DTD/svg11.dtd">
<svg version="1.1" id="Layer_1" xmlns="http://www.w3.org/2000/svg" xmlns:xlink="http://www.w3.org/1999/xlink" x="0px" y="0px"
	 width="25.139px" height="14.97px" viewBox="0 0 25.139 14.97" enable-background="new 0 0 25.139 14.97" xml:space="preserve">
<g>
	<polygon fill-rule="evenodd" clip-rule="evenodd" fill="#FBB22F" points="17.574,14.967 17.96,14.956 18.341,14.929 18.715,14.881 
		19.086,14.815 19.446,14.732 19.803,14.631 20.151,14.512 20.492,14.378 20.824,14.228 21.147,14.063 21.461,13.881 21.766,13.688 
		22.059,13.478 22.342,13.256 22.614,13.021 22.874,12.771 23.124,12.511 23.358,12.238 23.581,11.956 23.79,11.663 23.984,11.357 
		24.166,11.045 24.33,10.722 24.481,10.389 24.615,10.048 24.733,9.699 24.835,9.344 24.918,8.982 24.983,8.612 25.031,8.238 
		25.06,7.857 25.069,7.471 25.06,7.087 25.031,6.709 24.983,6.335 24.918,5.969 24.835,5.608 24.733,5.255 24.615,4.907 
		24.481,4.568 24.33,4.238 24.166,3.915 23.984,3.604 23.79,3.3 23.581,3.007 23.358,2.727 23.124,2.454 22.874,2.194 22.614,1.946 
		22.342,1.712 22.059,1.49 21.766,1.28 21.461,1.086 21.147,0.907 20.824,0.743 20.492,0.591 20.151,0.458 19.803,0.339 
		19.446,0.238 19.086,0.154 18.715,0.09 18.341,0.041 17.96,0.013 17.574,0.003 17.19,0.013 16.81,0.041 16.436,0.09 16.067,0.154 
		15.706,0.238 15.351,0.339 15.005,0.458 14.664,0.591 14.333,0.743 14.014,0.907 13.7,1.086 13.397,1.28 13.104,1.49 12.822,1.712 
		12.552,1.946 12.292,2.194 12.045,2.454 11.81,2.727 11.588,3.007 11.381,3.3 11.187,3.604 11.007,3.915 10.841,4.238 
		10.691,4.568 10.558,4.907 10.442,5.255 10.341,5.608 10.258,5.969 10.192,6.335 10.145,6.709 10.116,7.087 10.105,7.471 
		10.116,7.857 10.145,8.238 10.192,8.612 10.258,8.982 10.341,9.344 10.442,9.699 10.558,10.048 10.691,10.389 10.841,10.722 
		11.007,11.045 11.187,11.357 11.381,11.663 11.588,11.956 11.81,12.238 12.045,12.511 12.292,12.771 12.552,13.021 12.822,13.256 
		13.104,13.478 13.397,13.688 13.7,13.881 14.014,14.063 14.333,14.228 14.664,14.378 15.005,14.512 15.351,14.631 15.706,14.732 
		16.067,14.815 16.436,14.881 16.81,14.929 17.19,14.956 17.574,14.967 17.574,14.967 	"/>
	<polygon fill-rule="evenodd" clip-rule="evenodd" fill="#EA2230" points="7.564,14.967 7.948,14.956 8.329,14.929 8.703,14.881 
		9.071,14.815 9.433,14.732 9.788,14.631 10.134,14.512 10.475,14.378 10.806,14.228 11.126,14.063 11.439,13.881 11.741,13.688 
		12.034,13.478 12.317,13.256 12.587,13.021 12.847,12.771 13.094,12.511 13.329,12.238 13.551,11.956 13.758,11.663 13.953,11.357 
		14.132,11.045 14.298,10.722 14.447,10.389 14.581,10.048 14.697,9.699 14.798,9.344 14.881,8.982 14.947,8.612 14.995,8.238 
		15.022,7.857 15.032,7.471 15.022,7.087 14.995,6.709 14.947,6.335 14.881,5.969 14.798,5.608 14.697,5.255 14.581,4.907 
		14.447,4.568 14.298,4.238 14.132,3.915 13.953,3.604 13.758,3.3 13.551,3.007 13.329,2.727 13.094,2.454 12.847,2.194 
		12.587,1.946 12.317,1.712 12.034,1.49 11.741,1.28 11.439,1.086 11.126,0.907 10.806,0.743 10.475,0.591 10.134,0.458 
		9.788,0.339 9.433,0.238 9.071,0.154 8.703,0.09 8.329,0.041 7.948,0.013 7.564,0.003 7.179,0.013 6.798,0.041 6.424,0.09 
		6.053,0.154 5.692,0.238 5.336,0.339 4.988,0.458 4.647,0.591 4.314,0.743 3.991,0.907 3.679,1.086 3.373,1.28 3.08,1.49 
		2.797,1.712 2.525,1.946 2.266,2.194 2.016,2.454 1.78,2.727 1.559,3.007 1.349,3.3 1.154,3.604 0.973,3.915 0.809,4.238 
		0.657,4.568 0.523,4.907 0.405,5.255 0.305,5.608 0.221,5.969 0.155,6.335 0.107,6.709 0.079,7.087 0.069,7.471 0.079,7.857 
		0.107,8.238 0.155,8.612 0.221,8.982 0.305,9.344 0.405,9.699 0.523,10.048 0.657,10.389 0.809,10.722 0.973,11.045 1.154,11.357 
		1.349,11.663 1.559,11.956 1.78,12.238 2.016,12.511 2.266,12.771 2.525,13.021 2.797,13.256 3.08,13.478 3.373,13.688 
		3.679,13.881 3.991,14.063 4.314,14.228 4.647,14.378 4.988,14.512 5.336,14.631 5.692,14.732 6.053,14.815 6.424,14.881 
		6.798,14.929 7.179,14.956 7.564,14.967 7.564,14.967 	"/>
	<polygon fill-rule="evenodd" clip-rule="evenodd" fill="#FBB22F" points="11.694,2.873 15.669,2.873 15.669,2.467 12.037,2.467 
		11.694,2.873 11.694,2.873 	"/>
	<polygon fill-rule="evenodd" clip-rule="evenodd" fill="#FBB22F" points="11.098,3.776 15.669,3.776 15.669,3.369 11.338,3.369 
		11.098,3.776 11.098,3.776 	"/>
	<polygon fill-rule="evenodd" clip-rule="evenodd" fill="#FBB22F" points="10.654,4.678 15.669,4.678 15.669,4.271 10.83,4.271 
		10.654,4.678 10.654,4.678 	"/>
	<polygon fill-rule="evenodd" clip-rule="evenodd" fill="#FBB22F" points="10.349,5.581 15.669,5.581 15.669,5.175 10.475,5.175 
		10.349,5.581 10.349,5.581 	"/>
	<polygon fill-rule="evenodd" clip-rule="evenodd" fill="#FBB22F" points="10.525,9.947 15.682,9.947 15.682,9.541 10.398,9.541 
		10.525,9.947 10.525,9.947 	"/>
	<polygon fill-rule="evenodd" clip-rule="evenodd" fill="#FBB22F" points="10.906,10.851 15.682,10.851 15.682,10.443 
		10.717,10.443 10.906,10.851 10.906,10.851 	"/>
	<polygon fill-rule="evenodd" clip-rule="evenodd" fill="#FBB22F" points="11.441,11.751 15.682,11.751 15.682,11.346 
		11.187,11.346 11.441,11.751 11.441,11.751 	"/>
	<polygon fill-rule="evenodd" clip-rule="evenodd" fill="#FBB22F" points="12.179,12.655 15.682,12.655 15.682,12.246 
		11.823,12.246 12.179,12.655 12.179,12.655 	"/>
	<polygon fill-rule="evenodd" clip-rule="evenodd" fill="#FBB22F" points="10.17,6.481 15.669,6.481 15.669,6.075 10.247,6.075 
		10.17,6.481 10.17,6.481 	"/>
	<polygon fill-rule="evenodd" clip-rule="evenodd" fill="#FBB22F" points="13.521,9.046 15.618,9.046 15.618,8.64 13.597,8.64 
		13.521,9.046 13.521,9.046 	"/>
	<polygon fill-rule="evenodd" clip-rule="evenodd" fill="#FBB22F" points="13.688,8.145 15.618,8.145 15.618,7.736 13.764,7.736 
		13.688,8.145 13.688,8.145 	"/>
	<polygon fill-rule="evenodd" clip-rule="evenodd" fill="#FBB22F" points="10.03,7.736 10.576,7.736 10.576,8.145 10.056,8.145 
		10.03,7.736 10.03,7.736 	"/>
	<g>
		<g>
			<path fill-rule="evenodd" clip-rule="evenodd" fill="#FFFFFF" d="M24.376,8.923l-0.011-0.016l-0.012-0.016l-0.019-0.01
				l-0.02-0.008l-0.028-0.005l-0.03-0.002h-0.139v0.151v0.154h0.063V9.046h0.063l0.076,0.127h0.051l-0.076-0.127h0.018l0.018-0.005
				l0.016-0.005l0.013-0.011l0.005-0.007l0.005-0.005l0.008-0.016l0.005-0.018l0.002-0.023l-0.002-0.018L24.376,8.923z
				 M24.244,9.021h-0.063V9.019V8.92h0.075h0.015h0.014l0.012,0.003l0.014,0.002l0.008,0.005l0.007,0.005l0.005,0.011l0.002,0.012
				v0.019l-0.004,0.012l-0.006,0.009l-0.01,0.007L24.3,9.008l-0.015,0.006l-0.019,0.002l-0.01,0.003L24.244,9.021z"/>
			<path fill-rule="evenodd" clip-rule="evenodd" fill="#FFFFFF" d="M24.598,9.019L24.593,8.96l-0.021-0.068l-0.035-0.061
				l-0.043-0.053l-0.053-0.043l-0.061-0.03l-0.065-0.021l-0.071-0.007l-0.07,0.007l-0.065,0.021l-0.061,0.03l-0.054,0.043
				l-0.043,0.053l-0.035,0.061l-0.02,0.068l-0.006,0.059l-0.002,0.015l0.008,0.073l0.02,0.068l0.035,0.061l0.043,0.051l0.054,0.042
				l0.061,0.033l0.065,0.021l0.07,0.008l0.071-0.008l0.065-0.021l0.061-0.033l0.053-0.042l0.043-0.051l0.035-0.061l0.021-0.068
				L24.6,9.033L24.598,9.019z M24.52,9.094l-0.016,0.056l-0.025,0.048L24.446,9.24l-0.04,0.035l-0.048,0.027l-0.056,0.019
				l-0.059,0.005l-0.058-0.005l-0.056-0.019l-0.048-0.027L24.042,9.24L24.01,9.197l-0.025-0.048l-0.016-0.056l-0.005-0.061V9.019
				l0.005-0.046l0.016-0.056l0.025-0.05l0.032-0.044l0.041-0.035l0.048-0.024l0.056-0.018l0.058-0.006l0.059,0.006l0.056,0.018
				l0.048,0.024l0.04,0.035l0.032,0.044l0.025,0.05l0.016,0.056l0.002,0.046l0.003,0.015L24.52,9.094z"/>
		</g>
		<g>
			<polygon fill="none" points="12.173,7.633 12.165,7.522 12.155,7.476 12.123,7.392 12.076,7.325 12.05,7.3 11.985,7.257 
				11.949,7.238 11.877,7.216 11.793,7.204 11.751,7.206 11.67,7.224 11.59,7.256 11.521,7.304 11.46,7.364 11.406,7.438 
				11.362,7.523 11.332,7.617 11.323,7.662 12.17,7.662 			"/>
			<polygon fill="#FFFFFF" points="8.061,7.359 8.099,7.319 8.128,7.301 8.234,7.257 8.468,7.231 8.575,7.229 9.041,7.282 
				9.186,6.644 8.957,6.604 8.458,6.571 8.213,6.575 8.074,6.585 7.949,6.603 7.833,6.627 7.728,6.656 7.635,6.694 7.551,6.737 
				7.473,6.788 7.406,6.848 7.351,6.913 7.303,6.982 7.261,7.063 7.23,7.146 7.204,7.234 7.186,7.33 7.173,7.433 7.171,7.601 
				7.195,7.744 7.245,7.864 7.313,7.967 7.397,8.048 7.489,8.116 7.588,8.17 7.79,8.257 7.887,8.292 7.973,8.328 8.045,8.363 
				8.104,8.404 8.14,8.446 8.157,8.496 8.153,8.555 8.134,8.626 8.116,8.662 8.095,8.692 8.065,8.723 8.028,8.747 7.974,8.766 
				7.906,8.78 7.834,8.782 7.619,8.778 7.482,8.763 6.979,8.66 6.858,9.253 6.852,9.284 7.009,9.341 7.195,9.382 7.438,9.405 
				7.896,9.412 7.977,9.41 8.146,9.397 8.324,9.36 8.413,9.334 8.498,9.301 8.584,9.261 8.664,9.21 8.737,9.152 8.808,9.086 
				8.868,9.009 8.92,8.921 8.963,8.821 8.993,8.713 9.012,8.592 9.021,8.428 9.011,8.286 8.983,8.166 8.939,8.064 8.882,7.98 
				8.815,7.914 8.741,7.858 8.661,7.813 8.259,7.67 8.192,7.64 8.137,7.606 8.09,7.563 8.051,7.509 8.035,7.453 8.034,7.43 
				8.039,7.403 			"/>
			<polygon fill="#FFFFFF" points="10.379,8.786 10.356,8.794 10.323,8.804 10.283,8.813 10.237,8.821 10.188,8.826 10.132,8.829 
				10.07,8.823 10.016,8.813 9.965,8.799 9.92,8.781 9.887,8.753 9.861,8.721 9.849,8.678 9.852,8.627 10.094,7.219 10.538,7.231 
				10.629,6.661 10.207,6.661 10.312,6.05 9.611,6.05 9.13,8.804 9.122,8.867 9.114,8.925 9.114,8.98 9.117,9.033 9.125,9.081 
				9.137,9.124 9.154,9.167 9.18,9.202 9.213,9.235 9.256,9.266 9.303,9.291 9.361,9.313 9.43,9.331 9.511,9.346 9.599,9.356 
				9.699,9.364 9.892,9.364 9.935,9.358 9.975,9.354 10.013,9.349 10.046,9.344 10.076,9.339 10.105,9.333 10.132,9.328 
				10.156,9.321 10.18,9.313 10.202,9.306 10.223,9.298 10.24,9.291 10.258,9.28 10.275,9.271 10.293,9.261 10.312,9.248 
				10.398,8.778 10.395,8.781 			"/>
			<path fill="#FFFFFF" d="M12.576,8.651l-0.072,0.03L12.37,8.73l-0.202,0.037l-0.131,0.008l-0.131-0.002l-0.13-0.013l-0.172-0.026
				l-0.094-0.037l-0.085-0.054l-0.075-0.072L11.288,8.49l-0.025-0.045l-0.036-0.086l-0.01-0.044l-0.004-0.043l0.001-0.04
				l1.642-0.001l0.015-0.184l0.038-0.216l0.019-0.195l-0.003-0.176l-0.021-0.155l-0.037-0.14l-0.053-0.12L12.745,6.94l-0.079-0.09
				L12.58,6.777l-0.096-0.063l-0.102-0.047l-0.104-0.039l-0.106-0.026l-0.106-0.018l-0.106-0.011l-0.101-0.002l-0.209,0.011
				l-0.185,0.03l-0.169,0.048l-0.15,0.065l-0.13,0.077l-0.114,0.089l-0.102,0.1l-0.082,0.104l-0.073,0.109l-0.059,0.113L10.54,7.43
				L10.5,7.54l-0.027,0.108l-0.021,0.1l-0.024,0.178l-0.014,0.211l0.009,0.19L10.451,8.5l0.043,0.154l0.063,0.138l0.076,0.12
				l0.09,0.107l0.102,0.089l0.109,0.075l0.117,0.064l0.122,0.05l0.125,0.037l0.13,0.032l0.128,0.018l0.129,0.013L11.894,9.4
				l0.147-0.003l0.231-0.019l0.133-0.026l0.163-0.058l0.097-0.048l0.116-0.716L12.576,8.651z M11.332,7.617l0.03-0.094l0.044-0.085
				l0.054-0.074l0.061-0.061l0.069-0.048l0.08-0.032l0.081-0.018l0.042-0.002l0.084,0.012l0.072,0.022l0.036,0.019L12.05,7.3
				l0.026,0.025l0.047,0.066l0.032,0.084l0.01,0.047l0.008,0.11L12.17,7.662h-0.847L11.332,7.617z"/>
			<polygon fill="#FFFFFF" points="16.84,8.516 16.792,8.553 16.736,8.584 16.678,8.61 16.556,8.647 16.428,8.667 16.25,8.672 
				16.103,8.657 15.941,8.621 15.858,8.589 15.784,8.555 15.72,8.512 15.662,8.461 15.612,8.407 15.568,8.345 15.533,8.281 
				15.506,8.208 15.484,8.135 15.467,8.059 15.457,7.892 15.472,7.72 15.487,7.631 15.525,7.473 15.573,7.333 15.625,7.209 
				15.679,7.102 15.737,7.012 15.797,6.934 15.86,6.87 15.925,6.817 15.993,6.774 16.061,6.74 16.127,6.713 16.194,6.693 
				16.33,6.674 16.577,6.669 16.742,6.686 16.887,6.718 17.051,6.776 17.232,6.868 17.373,6.089 17.15,6.011 16.842,5.936 
				16.617,5.908 16.455,5.9 16.266,5.908 16.173,5.919 15.999,5.947 15.837,5.985 15.682,6.04 15.54,6.104 15.471,6.144 
				15.343,6.229 15.225,6.33 15.17,6.385 15.066,6.504 15.021,6.567 14.93,6.708 14.817,6.94 14.75,7.115 14.672,7.397 
				14.628,7.605 14.601,7.818 14.596,8.019 14.606,8.202 14.638,8.375 14.684,8.533 14.746,8.678 14.819,8.807 14.905,8.924 
				15.002,9.027 15.105,9.118 15.215,9.196 15.329,9.258 15.448,9.31 15.567,9.349 15.688,9.374 15.806,9.387 15.948,9.395 
				16.077,9.397 16.293,9.39 16.383,9.38 16.529,9.355 16.637,9.321 16.72,9.281 16.833,9.191 16.948,8.504 16.889,8.472 			"/>
			<path fill="#FFFFFF" d="M23.273,6.027l-0.166,0.928L23.038,6.87l-0.075-0.069L22.92,6.77l-0.1-0.059l-0.053-0.023l-0.124-0.039
				l-0.068-0.013l-0.074-0.009l-0.075-0.001l-0.107,0.005l-0.104,0.016L22.109,6.67l-0.103,0.036l-0.1,0.045l-0.099,0.057
				l-0.096,0.065l-0.091,0.075l-0.085,0.086l-0.08,0.092l-0.078,0.105l-0.066,0.114L21.248,7.47l-0.054,0.132l-0.046,0.144
				l-0.039,0.151l-0.022,0.132l-0.013,0.131l-0.002,0.134l0.008,0.133l0.021,0.131l0.028,0.127l0.042,0.121l0.052,0.118l0.063,0.109
				l0.073,0.097l0.085,0.089l0.096,0.077l0.105,0.06l0.116,0.045l0.127,0.028l0.134,0.01h0.051l0.053-0.003l0.154-0.021l0.1-0.026
				l0.1-0.042l0.096-0.054l0.095-0.071l0.049-0.047L22.677,9.4h0.772l0.575-3.331l0.008-0.042H23.273z M22.955,7.897l-0.008,0.073
				l-0.013,0.07l-0.013,0.068l-0.018,0.068l-0.021,0.065l-0.025,0.063l-0.027,0.061l-0.032,0.058L22.763,8.48l-0.038,0.051
				l-0.042,0.046l-0.049,0.042l-0.05,0.038l-0.053,0.03l-0.059,0.027l-0.061,0.019l-0.065,0.015l-0.071,0.005l-0.101-0.02
				l-0.083-0.056l-0.065-0.083L21.976,8.49l-0.033-0.118l-0.018-0.124l-0.005-0.12l0.013-0.111l0.015-0.074l0.021-0.072l0.021-0.068
				l0.025-0.068l0.027-0.065l0.033-0.061l0.035-0.059l0.038-0.055l0.042-0.049l0.043-0.042l0.051-0.041l0.051-0.033l0.058-0.024
				l0.058-0.021l0.063-0.01l0.069-0.005l0.052,0.005l0.049,0.013l0.045,0.02l0.043,0.03l0.038,0.035l0.033,0.041l0.029,0.048
				l0.025,0.051l0.021,0.058l0.018,0.061l0.01,0.063l0.008,0.065l0.003,0.07V7.897z"/>
			<path fill="#FFFFFF" d="M7.083,7.37V7.269L7.066,7.178L7.039,7.092L6.998,7.011L6.945,6.939L6.887,6.877L6.82,6.817L6.747,6.769
				L6.669,6.725L6.591,6.688L6.51,6.656L6.427,6.634l-0.08-0.019L6.268,6.603L6.195,6.598L5.773,6.592L5.482,6.607L5.289,6.641
				L5.162,6.673l-0.128,0.05L4.825,7.43l0.133-0.071l0.045-0.014l0.112-0.028l0.29-0.044l0.242-0.021L5.805,7.25l0.204,0.009
				l0.056,0.013l0.047,0.021L6.154,7.32l0.035,0.032l0.027,0.04l0.021,0.042l0.009,0.051L6.242,7.523L6.23,7.573L6.219,7.609
				L6.131,7.604H6.078L5.96,7.6L5.67,7.614L5.281,7.666L5.193,7.689L5.107,7.719L5.023,7.755L4.946,7.797L4.87,7.846L4.798,7.901
				l-0.065,0.06L4.67,8.027L4.614,8.101L4.567,8.177L4.525,8.261L4.492,8.35L4.466,8.441L4.45,8.538L4.442,8.64v0.059l0.005,0.057
				l0.02,0.121l0.016,0.059l0.021,0.058L4.53,9.051l0.032,0.057L4.6,9.16l0.045,0.051l0.053,0.048l0.058,0.043l0.066,0.039
				l0.075,0.035l0.082,0.025l0.093,0.023l0.143,0.019l0.152-0.009l0.078-0.01L5.52,9.409l0.15-0.042l0.069-0.026l0.133-0.063
				L5.99,9.205L6.035,9.17L5.998,9.4h0.708l0.107-0.59l0.255-1.334L7.083,7.37z M6.156,8.211l-0.015,0.08L6.124,8.375L6.104,8.447
				L6.096,8.476L6.084,8.504L6.068,8.533L6.051,8.564L6.03,8.595L6.005,8.622l-0.029,0.03L5.942,8.678L5.904,8.705L5.861,8.729
				L5.813,8.75l-0.05,0.019L5.705,8.783L5.64,8.794L5.571,8.801L5.495,8.804l-0.04-0.003l-0.04-0.007L5.372,8.778L5.334,8.753
				L5.301,8.715l-0.025-0.05L5.264,8.597l0.002-0.086l0.008-0.04L5.288,8.43l0.018-0.035l0.025-0.032l0.028-0.03l0.03-0.031
				l0.032-0.024l0.036-0.025L5.49,8.23l0.035-0.018l0.033-0.018L5.591,8.18l0.028-0.012l0.027-0.01l0.021-0.009l0.018-0.005
				l0.028-0.007l0.03-0.008l0.034-0.008l0.038-0.005l0.041-0.005l0.04-0.005l0.043-0.005L5.979,8.1h0.038h0.038l0.032,0.003
				l0.028,0.005l0.025,0.005L6.156,8.12l0.011,0.012L6.17,8.145L6.156,8.211z"/>
			<polygon fill="#FFFFFF" points="3.463,6.015 2.688,7.859 2.581,6.015 1.324,6.015 0.746,9.357 0.738,9.4 1.498,9.4 1.896,7.05 
				2.025,9.263 2.032,9.4 2.864,9.4 3.824,7.089 3.418,9.4 4.178,9.4 4.776,6.015 			"/>
			<path fill="#FFFFFF" d="M19.596,7.37V7.274l-0.018-0.089l-0.027-0.083L19.51,7.024l-0.051-0.07l-0.061-0.063l-0.063-0.056
				l-0.073-0.048l-0.076-0.045l-0.08-0.036l-0.079-0.03l-0.083-0.022l-0.078-0.018l-0.078-0.012l-0.071-0.006l-0.085-0.005
				L18.546,6.61h-0.081h-0.078h-0.078l-0.073,0.006l-0.073,0.002l-0.07,0.006l-0.068,0.004l-0.068,0.01l-0.063,0.011l-0.063,0.013
				l-0.062,0.013l-0.06,0.018l-0.058,0.02l-0.056,0.023l-0.008,0.002l-0.003,0.011l-0.177,0.608l0.025,0.015l0.025-0.013L17.49,7.34
				l0.044-0.016l0.055-0.015l0.062-0.013l0.064-0.013l0.074-0.013l0.072-0.01l0.078-0.011l0.081-0.007l0.081-0.008l0.083-0.005
				h0.081h0.078h0.075l0.071,0.003v0.002l0.059,0.003l0.053,0.015l0.05,0.023l0.043,0.029l0.035,0.036l0.03,0.043l0.021,0.045
				l0.01,0.053h-0.003l-0.002,0.048l-0.009,0.051l-0.007,0.046L18.77,7.632L18.748,7.63l-0.041-0.002l-0.048-0.005h-0.056h-0.058
				l-0.061-0.006h-0.062h-0.027l-0.035,0.006l-0.035,0.003l-0.04,0.002l-0.043,0.005L18.2,7.636l-0.046,0.005l-0.043,0.005
				l-0.04,0.005l-0.038,0.005l-0.035,0.003l-0.033,0.005l-0.025,0.002l-0.02,0.003L17.91,7.67h-0.006l-0.088,0.016L17.73,7.708
				l-0.084,0.028l-0.08,0.035l-0.078,0.04l-0.076,0.051l-0.067,0.054l-0.065,0.06l-0.061,0.063l-0.054,0.07l-0.051,0.076
				l-0.037,0.083l-0.032,0.086l-0.023,0.091l-0.016,0.096L16.999,8.64l0.002,0.056l0.005,0.055l0.008,0.062l0.011,0.058l0.013,0.056
				l0.02,0.058l0.022,0.059l0.033,0.053l0.035,0.054l0.041,0.047l0.05,0.048l0.059,0.041l0.065,0.041l0.073,0.032l0.083,0.025
				l0.091,0.022l0.07,0.011l0.068,0.007l0.07-0.002l0.074-0.005l0.072-0.011l0.071-0.013l0.07-0.02l0.07-0.021l0.063-0.025
				l0.065-0.03l0.062-0.03l0.052-0.035l0.054-0.036l0.045-0.034l0.04-0.04l-0.002,0.05v0.091l-0.005,0.104l-0.002,0.018h0.017h0.634
				l0.013-0.003l0.003-0.013l0.104-0.56l0.265-1.333L19.596,7.37z M18.688,8.208l-0.01,0.071l-0.014,0.072l-0.01,0.07L18.646,8.45
				l-0.01,0.03l-0.013,0.03l-0.018,0.03l-0.023,0.032l-0.027,0.031l-0.03,0.032L18.49,8.665l-0.041,0.03l-0.045,0.025l-0.048,0.022
				l-0.055,0.021l-0.059,0.018l-0.066,0.013l-0.07,0.007l-0.075,0.003l-0.043-0.003l-0.043-0.007l-0.043-0.016l-0.038-0.025
				l-0.03-0.038l-0.021-0.05l-0.012-0.068l0.003-0.086l0.007-0.043l0.015-0.04l0.018-0.038l0.023-0.035l0.027-0.033l0.027-0.027
				l0.033-0.028l0.033-0.022l0.032-0.022l0.036-0.018l0.029-0.016l0.033-0.015l0.027-0.01l0.025-0.008l0.021-0.008l0.018-0.003
				l0.025-0.005l0.032-0.008l0.034-0.004l0.037-0.008l0.038-0.006l0.04-0.005l0.04-0.005L18.498,8.1l0.037-0.003h0.038L18.606,8.1
				l0.027,0.003l0.025,0.007l0.019,0.008l0.01,0.013l0.004,0.015L18.688,8.208z"/>
			<polygon fill="#FFFFFF" points="21.208,7.317 21.301,7.317 21.428,6.595 21.239,6.61 21.173,6.624 21.051,6.664 20.997,6.69 
				20.893,6.752 20.801,6.825 20.72,6.907 20.657,6.981 20.716,6.625 19.934,6.625 19.457,9.357 19.449,9.4 20.234,9.4 
				20.494,7.935 20.533,7.773 20.576,7.668 20.635,7.57 20.673,7.525 20.764,7.445 20.817,7.41 20.879,7.381 20.949,7.357 
				21.028,7.338 21.111,7.322 			"/>
			<polygon fill="#FFFFFF" points="14.717,6.895 14.88,6.61 14.82,6.61 14.775,6.602 14.762,6.603 14.72,6.598 14.619,6.603 
				14.547,6.61 14.416,6.64 14.354,6.661 14.248,6.714 14.2,6.746 14.113,6.819 13.996,6.948 13.98,6.97 14.049,6.625 13.251,6.625 
				12.773,9.357 12.767,9.4 13.563,9.4 13.812,7.934 13.846,7.778 13.881,7.682 13.904,7.638 13.932,7.595 13.965,7.555 
				14.043,7.485 14.152,7.43 14.222,7.407 14.296,7.389 14.38,7.376 14.479,7.368 14.579,7.381 14.696,6.939 			"/>
		</g>
	</g>
</g>
</svg>
