<?xml version="1.0" encoding="utf-8"?>
<!-- Generator: Adobe Illustrator 16.0.0, SVG Export Plug-In . SVG Version: 6.00 Build 0)  -->
<!DOCTYPE svg PUBLIC "-//W3C//DTD SVG 1.1//EN" "http://www.w3.org/Graphics/SVG/1.1/DTD/svg11.dtd">
<svg version="1.1" id="Layer_1" xmlns="http://www.w3.org/2000/svg" xmlns:xlink="http://www.w3.org/1999/xlink" x="0px" y="0px"
	 width="30px" height="9.811px" viewBox="0 0 30 9.811" enable-background="new 0 0 30 9.811" xml:space="preserve">
<g>
	<g>
		<path fill-rule="evenodd" clip-rule="evenodd" fill="#999EB7" d="M25.07,0C27.789,0,30,2.186,30,4.876
			c0,2.683-2.211,4.876-4.93,4.876c-0.007,0-0.02-0.006-0.026-0.006V8.354l0,0c1.94,0,3.517-1.566,3.517-3.479
			c0-1.919-1.576-3.486-3.517-3.486l0,0V0C25.051,0,25.063,0,25.07,0z M25.044,9.746c-2.699-0.015-4.897-2.2-4.897-4.87
			c0-2.677,2.198-4.856,4.897-4.876v1.39c-1.94,0-3.524,1.567-3.524,3.486c0,1.912,1.584,3.479,3.524,3.479V9.746z"/>
		<path fill-rule="evenodd" clip-rule="evenodd" fill="#999EB7" d="M19.851,0c-1.386,1.154-2.264,2.885-2.264,4.805
			c0,2.036,0.983,3.851,2.508,5.006h-1.591C16.992,8.655,16.01,6.848,16.01,4.81c0-1.925,0.884-3.655,2.271-4.81H19.851z"/>
		<path fill-rule="evenodd" clip-rule="evenodd" fill="#999EB7" d="M15.845,0c-1.373,1.154-2.257,2.885-2.257,4.805
			c0,2.036,0.989,3.851,2.501,5.006h-1.576C12.994,8.655,12.01,6.848,12.01,4.81c0-1.925,0.885-3.655,2.271-4.81H15.845z"/>
		<path fill-rule="evenodd" clip-rule="evenodd" fill="#999EB7" d="M11.846,0c-1.379,1.154-2.264,2.885-2.264,4.805
			c0,2.036,0.989,3.851,2.514,5.006h-1.59C8.988,8.655,8.005,6.848,8.005,4.81c0-1.925,0.884-3.655,2.271-4.81H11.846z"/>
		<path fill-rule="evenodd" clip-rule="evenodd" fill="#999EB7" d="M7.84,0C6.46,1.154,5.583,2.885,5.583,4.805
			c0,2.036,0.983,3.851,2.508,5.006h-1.59C4.982,8.655,4.006,6.848,4.006,4.81c0-1.925,0.878-3.655,2.27-4.81H7.84z"/>
		<path fill-rule="evenodd" clip-rule="evenodd" fill="#999EB7" d="M3.835,0c-1.38,1.154-2.258,2.885-2.258,4.805
			c0,2.036,0.983,3.851,2.508,5.006H2.494C0.977,8.655,0,6.848,0,4.81C0,2.885,0.885,1.154,2.271,0H3.835z"/>
	</g>
</g>
</svg>
