<?xml version="1.0" encoding="utf-8"?>
<!-- Generator: Adobe Illustrator 16.0.0, SVG Export Plug-In . SVG Version: 6.00 Build 0)  -->
<!DOCTYPE svg PUBLIC "-//W3C//DTD SVG 1.1//EN" "http://www.w3.org/Graphics/SVG/1.1/DTD/svg11.dtd">
<svg version="1.1" id="Layer_1" xmlns="http://www.w3.org/2000/svg" xmlns:xlink="http://www.w3.org/1999/xlink" x="0px" y="0px"
	 width="35px" height="9.066px" viewBox="0 0 35 9.066" enable-background="new 0 0 35 9.066" xml:space="preserve">
<g>
	<path fill="#33679A" d="M28.752,1.829c-0.37-0.205-0.947-0.31-1.738-0.31c-0.391,0-0.783,0.031-1.178,0.093
		c-0.289,0.044-0.319,0.051-0.499,0.09c-0.369,0.081-0.428,0.451-0.428,0.451l-0.118,0.489c-0.067,0.312,0.111,0.299,0.189,0.274
		c0.162-0.049,0.249-0.097,0.579-0.172c0.315-0.071,0.647-0.125,0.912-0.123c0.39,0,0.686,0.043,0.883,0.125
		c0.197,0.087,0.295,0.232,0.295,0.441c0,0.05,0.002,0.097-0.017,0.138c-0.017,0.039-0.047,0.075-0.141,0.088
		c-0.555,0.032-0.954,0.084-1.435,0.154c-0.473,0.066-0.888,0.181-1.234,0.339c-0.369,0.163-0.646,0.383-0.837,0.661
		c-0.185,0.279-0.278,0.617-0.279,1.016c0,0.376,0.136,0.683,0.397,0.922c0.265,0.235,0.609,0.352,1.026,0.352
		c0.26-0.002,0.464-0.021,0.609-0.058c0.145-0.036,0.303-0.088,0.469-0.16c0.124-0.053,0.259-0.127,0.4-0.222
		c0.143-0.095,0.241-0.162,0.367-0.245l0.005,0.008l-0.036,0.157c-0.001,0.001-0.002,0.002-0.002,0.003l0.001,0.004
		c-0.041,0.188,0.073,0.345,0.26,0.364l0.002,0.003h0.017l0.001,0.001c0.124,0,0.549,0,0.748-0.001h0.139
		c0.009,0,0.011-0.003,0.014-0.006c0.19-0.022,0.374-0.178,0.417-0.365l0.71-3.064c0.016-0.072,0.029-0.155,0.036-0.252
		c0.01-0.097,0.021-0.177,0.018-0.234C29.306,2.356,29.119,2.035,28.752,1.829z M27.03,5.482c-0.121,0.076-0.248,0.142-0.382,0.197
		c-0.18,0.072-0.35,0.11-0.507,0.11c-0.242,0-0.428-0.035-0.554-0.107c-0.126-0.069-0.191-0.19-0.189-0.362
		c0-0.199,0.046-0.354,0.141-0.476c0.097-0.116,0.238-0.21,0.415-0.28c0.176-0.06,0.393-0.108,0.641-0.144
		c0.223-0.028,0.661-0.079,0.717-0.079c0.057,0,0.094-0.031,0.069,0.118c-0.012,0.064-0.139,0.585-0.196,0.821
		C27.167,5.352,27.073,5.455,27.03,5.482z"/>
	<path fill="#1B3664" d="M16.531,1.587c-0.207,0-0.481,0.169-0.61,0.372c0,0-1.395,2.391-1.53,2.629
		c-0.075,0.128-0.15,0.047-0.163-0.001c-0.01-0.058-0.431-2.611-0.431-2.611c-0.048-0.206-0.263-0.382-0.532-0.381l-0.868,0.001
		c-0.21,0-0.341,0.167-0.294,0.371c0,0,0.664,3.766,0.794,4.65c0.064,0.489-0.007,0.577-0.007,0.577l-0.861,1.501
		c-0.126,0.203-0.057,0.371,0.152,0.371l1.007-0.001c0.208,0,0.483-0.166,0.609-0.37l3.873-6.553c0,0,0.371-0.56,0.029-0.556
		C17.466,1.591,16.531,1.587,16.531,1.587"/>
	<path fill="#1B3664" d="M4.301,2.92C4.007,3.134,3.602,3.241,3.073,3.241H2.835c-0.21,0-0.343-0.167-0.296-0.371l0.293-1.262
		c0.044-0.203,0.253-0.372,0.464-0.37l0.318-0.002c0.371,0,0.654,0.063,0.846,0.19c0.188,0.122,0.283,0.316,0.279,0.579
		C4.744,2.399,4.596,2.704,4.301,2.92 M6.401,0.975C6.28,0.739,6.1,0.547,5.868,0.403c-0.24-0.149-0.52-0.251-0.845-0.313
		C4.696,0.032,4.314,0.004,3.875,0l-2.03,0.001C1.634,0.004,1.428,0.169,1.378,0.372L0.01,6.324
		c-0.048,0.203,0.084,0.371,0.295,0.371h0.974c0.209,0,0.418-0.164,0.465-0.371L2.078,4.88c0.044-0.202,0.253-0.37,0.464-0.37h0.277
		c1.19-0.001,2.112-0.244,2.775-0.731c0.662-0.485,0.993-1.13,0.992-1.928C6.588,1.501,6.527,1.209,6.401,0.975"/>
	<path fill="#33679A" d="M21.96,2.943c-0.291,0.212-0.7,0.318-1.227,0.318h-0.242c-0.21,0.002-0.344-0.167-0.295-0.37l0.292-1.263
		c0.044-0.2,0.256-0.371,0.462-0.368l0.319-0.003c0.374,0.003,0.653,0.065,0.847,0.188c0.188,0.126,0.28,0.321,0.281,0.58
		C22.398,2.422,22.252,2.727,21.96,2.943 M24.06,0.996c-0.122-0.235-0.305-0.426-0.536-0.573c-0.237-0.147-0.519-0.25-0.846-0.311
		c-0.322-0.057-0.707-0.089-1.144-0.09l-2.035,0.001c-0.21,0.004-0.415,0.168-0.464,0.371l-1.367,5.952
		c-0.05,0.203,0.085,0.372,0.292,0.371l0.977-0.002c0.206,0.002,0.417-0.166,0.467-0.369l0.329-1.443
		C19.778,4.7,19.989,4.53,20.2,4.534h0.277c1.191,0,2.115-0.245,2.775-0.732c0.66-0.489,0.992-1.131,0.992-1.93
		C24.243,1.523,24.184,1.229,24.06,0.996"/>
	<path fill="#1B3664" d="M11.089,1.824c-0.369-0.205-0.946-0.31-1.737-0.31c-0.391,0-0.783,0.031-1.178,0.093
		c-0.29,0.044-0.318,0.052-0.499,0.091c-0.37,0.081-0.427,0.45-0.427,0.45L7.129,2.637c-0.067,0.313,0.111,0.3,0.19,0.275
		C7.48,2.863,7.568,2.816,7.897,2.74c0.314-0.071,0.647-0.124,0.913-0.122c0.39,0,0.685,0.042,0.882,0.124
		C9.89,2.828,9.986,2.975,9.986,3.184c0.001,0.05,0.003,0.098-0.016,0.138C9.955,3.36,9.924,3.396,9.83,3.409
		C9.275,3.443,8.877,3.493,8.396,3.563C7.922,3.63,7.508,3.744,7.161,3.902C6.792,4.066,6.516,4.286,6.325,4.563
		C6.139,4.843,6.046,5.181,6.046,5.579c0,0.377,0.135,0.684,0.396,0.922c0.265,0.235,0.609,0.352,1.026,0.352
		c0.261-0.002,0.463-0.021,0.61-0.058c0.144-0.037,0.302-0.088,0.468-0.16c0.125-0.052,0.259-0.128,0.401-0.222
		c0.142-0.095,0.24-0.161,0.366-0.244l0.004,0.007L9.283,6.332c0,0.002-0.002,0.003-0.002,0.005L9.282,6.34
		c-0.041,0.188,0.072,0.345,0.26,0.363l0.002,0.004h0.017v0.002c0.125,0,0.55-0.001,0.749-0.002h0.139
		c0.01,0,0.011-0.003,0.014-0.005c0.19-0.024,0.373-0.179,0.417-0.365l0.71-3.066c0.017-0.071,0.029-0.154,0.036-0.251
		c0.01-0.097,0.021-0.176,0.017-0.233C11.644,2.353,11.457,2.031,11.089,1.824z M9.368,5.479C9.248,5.555,9.12,5.619,8.986,5.675
		c-0.179,0.071-0.351,0.11-0.508,0.11c-0.24,0-0.428-0.034-0.553-0.107C7.8,5.608,7.734,5.487,7.735,5.315
		c0-0.199,0.047-0.354,0.143-0.475C7.974,4.723,8.114,4.629,8.292,4.56C8.468,4.5,8.685,4.451,8.933,4.416
		C9.155,4.388,9.594,4.338,9.65,4.337c0.056,0,0.093-0.031,0.067,0.118C9.707,4.521,9.581,5.04,9.522,5.276
		C9.505,5.348,9.411,5.45,9.368,5.479z"/>
	<g>
		<g>
			<path fill="#33679A" d="M32.104,0.071h-0.87c0,0-0.001,0-0.001,0h-0.001c-0.199,0-0.397,0.152-0.456,0.345
				c-0.002,0.009-0.009,0.017-0.011,0.025c0,0-0.014,0.063-0.033,0.152l-1.209,5.483c-0.032,0.143-0.055,0.242-0.061,0.264
				l0.003,0.004c-0.04,0.188,0.073,0.339,0.256,0.359l0.006,0.008h0.903c0.192,0,0.383-0.145,0.448-0.329
				c0.005-0.015,0.015-0.027,0.019-0.042l1.304-5.9l-0.001,0C32.442,0.239,32.313,0.071,32.104,0.071z"/>
		</g>
	</g>
	<g>
		<path fill="#33679A" d="M33.425,1.272c-0.029,0.008-0.062,0.015-0.097,0.019C33.292,1.297,33.261,1.3,33.233,1.3
			c-0.097,0-0.171-0.026-0.221-0.078s-0.075-0.136-0.075-0.25V0.469h-0.108V0.334h0.108V0.063h0.159v0.271h0.328v0.135h-0.328v0.431
			c0,0.05,0.002,0.089,0.003,0.116c0.003,0.029,0.011,0.055,0.024,0.079c0.012,0.022,0.029,0.039,0.051,0.05
			c0.021,0.01,0.056,0.016,0.1,0.016c0.026,0,0.054-0.004,0.082-0.012c0.027-0.007,0.048-0.015,0.061-0.02h0.008V1.272z"/>
		<path fill="#33679A" d="M35,1.281h-0.16V0.742c0-0.04-0.001-0.08-0.006-0.118c-0.003-0.038-0.011-0.067-0.023-0.091
			c-0.013-0.024-0.03-0.042-0.056-0.055C34.73,0.466,34.695,0.46,34.65,0.46s-0.089,0.011-0.134,0.033s-0.09,0.051-0.134,0.085
			c0.001,0.014,0.002,0.028,0.003,0.046c0.002,0.017,0.003,0.034,0.003,0.051v0.606h-0.159V0.742c0-0.042-0.003-0.082-0.006-0.119
			c-0.004-0.037-0.012-0.067-0.023-0.09c-0.014-0.024-0.031-0.043-0.057-0.055c-0.024-0.013-0.059-0.019-0.104-0.019
			c-0.044,0-0.087,0.011-0.132,0.032c-0.043,0.021-0.086,0.049-0.131,0.081v0.708h-0.159V0.334h0.159v0.105
			c0.051-0.041,0.1-0.074,0.15-0.097c0.049-0.023,0.101-0.035,0.157-0.035c0.063,0,0.119,0.014,0.163,0.041
			c0.046,0.027,0.079,0.064,0.102,0.113c0.063-0.055,0.123-0.094,0.176-0.117c0.054-0.024,0.11-0.037,0.17-0.037
			c0.104,0,0.181,0.032,0.231,0.095C34.975,0.466,35,0.555,35,0.666V1.281z"/>
	</g>
</g>
</svg>
