<?xml version="1.0" encoding="utf-8"?>
<!-- Generator: Adobe Illustrator 16.0.0, SVG Export Plug-In . SVG Version: 6.00 Build 0)  -->
<!DOCTYPE svg PUBLIC "-//W3C//DTD SVG 1.1//EN" "http://www.w3.org/Graphics/SVG/1.1/DTD/svg11.dtd">
<svg version="1.1" id="Layer_1" xmlns="http://www.w3.org/2000/svg" xmlns:xlink="http://www.w3.org/1999/xlink" x="0px" y="0px"
	 width="10px" height="16.957px" viewBox="0 0 10 16.957" enable-background="new 0 0 10 16.957" xml:space="preserve">
<g>
	<path fill="#A2925E" d="M8.412,0H1.589C0.714,0,0,0.713,0,1.588v13.778c0,0.877,0.714,1.591,1.589,1.591h6.823
		c0.877,0,1.588-0.714,1.588-1.591V1.588C10,0.713,9.289,0,8.412,0z M1.589,1.061h6.823c0.293,0,0.53,0.237,0.53,0.527v0.367H1.062
		V1.588C1.062,1.298,1.297,1.061,1.589,1.061z M8.942,3.016v8.811H1.062V3.016H8.942z M8.412,15.896H1.589
		c-0.292,0-0.527-0.237-0.527-0.529v-2.479h7.881v2.479C8.942,15.658,8.705,15.896,8.412,15.896z"/>
	<path fill="#A2925E" d="M4.839,13.34c-0.427,0.064-0.779,0.416-0.844,0.844c-0.105,0.688,0.479,1.272,1.167,1.167
		c0.43-0.064,0.778-0.417,0.844-0.844C6.112,13.818,5.526,13.234,4.839,13.34z"/>
</g>
</svg>
