<?xml version="1.0" encoding="utf-8"?>
<!-- Generator: Adobe Illustrator 16.0.0, SVG Export Plug-In . SVG Version: 6.00 Build 0)  -->
<!DOCTYPE svg PUBLIC "-//W3C//DTD SVG 1.1//EN" "http://www.w3.org/Graphics/SVG/1.1/DTD/svg11.dtd">
<svg version="1.1" id="Layer_1" xmlns="http://www.w3.org/2000/svg" xmlns:xlink="http://www.w3.org/1999/xlink" x="0px" y="0px"
	 width="120px" height="77.852px" viewBox="0 0 120 77.852" enable-background="new 0 0 120 77.852" xml:space="preserve">
<g>
	<path fill="#BABABA" d="M37.428,75.671c0,0.492-0.037,0.811-0.116,0.96c-0.07,0.152-0.174,0.253-0.305,0.316
		c-0.123,0.062-0.315,0.092-0.559,0.092h-0.217l0.161,0.786c0.13,0.018,0.217,0.026,0.27,0.026c0.356,0,0.655-0.075,0.904-0.233
		c0.253-0.159,0.431-0.37,0.54-0.632c0.112-0.26,0.169-0.666,0.169-1.214v-5.859h-0.848V75.671z"/>
	<polygon fill="#BABABA" points="43.38,73.24 45.812,73.24 45.812,72.479 43.38,72.479 43.38,70.669 45.897,70.669 45.897,69.913 
		42.532,69.913 42.532,75.841 45.979,75.841 45.979,75.086 43.38,75.086 	"/>
	<polygon fill="#BABABA" points="55.76,74.008 54.105,69.913 53.307,69.913 51.657,74.008 50.019,69.913 49.168,69.913 
		51.557,75.874 51.738,75.874 53.701,71.05 55.643,75.874 55.827,75.874 58.231,69.913 57.385,69.913 	"/>
	<polygon fill="#BABABA" points="62.672,73.24 65.105,73.24 65.105,72.479 62.672,72.479 62.672,70.669 65.19,70.669 65.19,69.913 
		61.829,69.913 61.829,75.841 65.271,75.841 65.271,75.086 62.672,75.086 	"/>
	<polygon fill="#BABABA" points="69.961,69.913 69.11,69.913 69.11,75.85 72.636,75.85 72.636,75.074 69.961,75.074 	"/>
	<path fill="#BABABA" d="M80.108,74.668c-0.333-0.538-0.586-0.914-0.764-1.129c-0.187-0.213-0.373-0.382-0.561-0.51
		c0.326-0.123,0.569-0.313,0.746-0.567c0.172-0.253,0.257-0.546,0.257-0.896c0-0.507-0.175-0.908-0.53-1.203
		c-0.351-0.299-0.823-0.449-1.427-0.449h-1.488v5.937h0.851v-2.58h0.22c0.277,0,0.476,0.027,0.592,0.09
		c0.119,0.063,0.251,0.172,0.396,0.315c0.149,0.142,0.311,0.338,0.485,0.581l0.282,0.463l0.262,0.435l0.167,0.231
		c0.027,0.033,0.045,0.062,0.05,0.073l0.26,0.392h1.015l-0.315-0.423C80.48,75.255,80.314,75,80.108,74.668z M78.399,72.4
		c-0.158,0.07-0.454,0.112-0.885,0.112h-0.322v-1.878h0.255c0.417,0,0.714,0.032,0.896,0.092c0.175,0.066,0.316,0.173,0.417,0.323
		c0.1,0.152,0.146,0.318,0.146,0.511c0,0.191-0.045,0.355-0.133,0.508C78.685,72.218,78.563,72.327,78.399,72.4z"/>
	<polygon fill="#BABABA" points="85.597,71.961 84.012,69.913 82.985,69.913 85.179,72.705 85.179,75.85 86.048,75.85 
		86.048,72.705 88.241,69.913 87.208,69.913 	"/>
	<path fill="#BABABA" d="M45.271,40.281c0,0-0.306,0.496,0.151,0.592c0.559,0.113,2.211,0.339,2.605-0.039
		c0.987-0.954,4.648-4.619,3.836-4.924c-0.3-0.113-2.126-0.345-2.448-0.021C48.767,36.535,46.962,38.344,45.271,40.281z"/>
	<path fill="#BABABA" d="M119.91,51.034c-0.133-0.15-0.363-0.167-0.517-0.035l-0.009,0.004c-0.947,0.828-1.914,1.635-2.898,2.425
		c-0.98,0.789-1.969,1.568-2.972,2.321c-1.007,0.752-2.03,1.479-3.068,2.157c-1.043,0.68-2.106,1.322-3.184,1.796
		c-0.273,0.115-0.542,0.228-0.801,0.308c-0.155,0.048-0.309,0.085-0.448,0.115c0.068-0.132,0.144-0.271,0.233-0.402
		c0.151-0.243,0.324-0.486,0.498-0.729c0.351-0.484,0.738-0.97,1.128-1.45c0.791-0.963,1.614-1.917,2.44-2.886
		c0.406-0.486,0.814-0.974,1.225-1.474c0.4-0.501,0.802-1.011,1.192-1.533c0.389-0.533,0.767-1.077,1.128-1.663
		c0.183-0.297,0.361-0.604,0.52-0.94c0.163-0.338,0.32-0.696,0.437-1.156c0.056-0.229,0.104-0.487,0.104-0.814
		c0-0.164-0.014-0.344-0.059-0.541c-0.047-0.198-0.126-0.412-0.248-0.615c-0.121-0.206-0.282-0.396-0.46-0.539
		c-0.174-0.141-0.353-0.251-0.524-0.321c-0.338-0.155-0.626-0.201-0.882-0.229c-0.505-0.048-0.905-0.003-1.284,0.051
		c-0.383,0.051-0.75,0.137-1.104,0.236c-0.711,0.205-1.365,0.47-1.991,0.775c-0.626,0.303-1.219,0.642-1.788,1.005
		c-0.655,0.426-1.28,0.877-1.883,1.339c0.004-0.022,0.016-0.042,0.021-0.066c0.124-0.363,0.234-0.75,0.266-1.27
		c0.005-0.265-0.004-0.575-0.13-0.944c-0.06-0.185-0.155-0.376-0.288-0.562l-0.051-0.07c-0.022-0.032-0.049-0.057-0.073-0.085
		l-0.021-0.025l-0.043-0.046l-0.023-0.021c-0.059-0.062-0.126-0.124-0.2-0.181c-0.287-0.234-0.659-0.4-0.995-0.462
		c-0.344-0.068-0.656-0.058-0.919-0.019c-0.534,0.082-0.929,0.249-1.28,0.418c-0.711,0.35-1.262,0.762-1.791,1.185
		c-0.525,0.422-1.007,0.86-1.471,1.32c-0.455,0.453-0.899,0.916-1.327,1.396c-0.206,0.238-0.417,0.477-0.62,0.716
		c-0.205,0.245-0.406,0.494-0.606,0.739c-0.396,0.493-0.772,0.99-1.147,1.522c-0.039,0.048-0.085,0.104-0.13,0.158l-0.157,0.185
		c-0.104,0.123-0.215,0.245-0.327,0.362c-0.22,0.242-0.448,0.479-0.684,0.709c-0.465,0.455-0.952,0.891-1.463,1.281
		c-0.51,0.402-1.038,0.755-1.577,1.041c-0.22,0.113-0.434,0.209-0.648,0.299c0.536-0.679,1.05-1.381,1.527-2.114
		c0.391-0.608,0.763-1.231,1.097-1.884c0.326-0.649,0.631-1.321,0.872-2.035c0.232-0.72,0.42-1.468,0.436-2.313
		c0-0.423-0.034-0.874-0.227-1.376c-0.105-0.242-0.252-0.507-0.492-0.742c-0.234-0.234-0.572-0.42-0.906-0.484
		c-0.332-0.064-0.647-0.04-0.913,0.024c-0.267,0.063-0.496,0.159-0.7,0.271c-0.208,0.107-0.391,0.232-0.557,0.361
		c-0.176,0.125-0.328,0.262-0.469,0.396c-0.559,0.52-1.032,1.057-1.489,1.621c-0.457,0.557-0.886,1.131-1.288,1.729
		c-0.406,0.595-0.787,1.212-1.132,1.863c-0.337,0.648-0.651,1.329-0.876,2.084c-0.11,0.375-0.198,0.772-0.24,1.202
		c-0.039,0.422-0.031,0.885,0.098,1.374c0.067,0.238,0.162,0.481,0.296,0.71c0.137,0.231,0.306,0.444,0.492,0.625
		c0.12,0.11,0.242,0.206,0.373,0.291l-0.198,0.197c-0.124,0.115-0.236,0.229-0.361,0.338c-0.236,0.216-0.479,0.425-0.73,0.621
		c-0.504,0.389-1.026,0.736-1.566,1.004c-0.541,0.263-1.102,0.452-1.635,0.514c-0.532,0.067-1.037,0.003-1.449-0.187
		c-0.42-0.192-0.752-0.511-0.971-0.923c-0.225-0.408-0.326-0.904-0.307-1.421c0.021-0.516,0.161-1.043,0.403-1.543l0.046-0.09
		l0.044-0.089l0.052-0.106l0.056-0.101c0.082-0.144,0.167-0.279,0.249-0.414c0.163-0.277,0.344-0.548,0.524-0.813
		c0.371-0.536,0.772-1.056,1.195-1.557c0.849-1.016,1.782-1.975,2.77-2.879c0.493-0.452,0.999-0.895,1.514-1.319
		c0.257-0.218,0.52-0.426,0.781-0.632c0.491-0.388,0.892-1.024,1.004-1.289c0.116-0.265-1.369-1.292-1.557-1.366
		c-0.192-0.077-1.137,0.586-1.137,0.586c-0.27,0.23-0.541,0.464-0.812,0.7c-0.53,0.472-1.052,0.96-1.565,1.468
		c-1.015,1.001-1.991,2.052-2.887,3.183c-0.451,0.573-0.884,1.16-1.284,1.777c-0.008,0.015-0.023,0.031-0.03,0.054
		c-0.009,0.005-0.017,0.01-0.022,0.022c-0.545,0.784-1.14,1.528-1.769,2.235c-0.63,0.715-1.294,1.388-2.006,2
		c-0.704,0.614-1.457,1.179-2.246,1.631c-0.398,0.23-0.805,0.422-1.217,0.58c-0.202,0.079-0.408,0.141-0.608,0.187
		c-0.102,0.025-0.197,0.046-0.293,0.057c-0.045,0.008-0.09,0.013-0.136,0.017l-0.054,0.005h-0.011h-0.014h-0.005h-0.08
		c-0.226,0.013-0.439-0.009-0.615-0.057c-0.172-0.054-0.303-0.126-0.412-0.23c-0.106-0.107-0.192-0.251-0.262-0.446
		c-0.064-0.186-0.11-0.406-0.133-0.643c-0.036-0.479,0-1.004,0.076-1.531c0.073-0.481,0.177-0.969,0.308-1.451
		c0.392-0.359,0.783-0.718,1.173-1.072c1.697-1.602,3.351-3.237,4.978-4.896c1.627-1.67,3.22-3.368,4.769-5.11
		c1.552-1.742,3.068-3.525,4.518-5.362c1.452-1.843,2.846-3.741,4.146-5.715c0.654-0.984,1.275-1.996,1.878-3.026
		c0.599-1.029,1.168-2.08,1.692-3.189c0.265-0.547,0.52-1.113,0.749-1.701c0.232-0.6,0.443-1.22,0.609-1.913
		c0.08-0.355,0.15-0.725,0.187-1.157c0.012-0.214,0.02-0.447,0.006-0.71c-0.023-0.259-0.06-0.558-0.171-0.902
		c-0.055-0.169-0.131-0.351-0.235-0.544c-0.106-0.189-0.243-0.386-0.412-0.572c-0.174-0.182-0.377-0.35-0.591-0.475
		c-0.218-0.129-0.443-0.225-0.655-0.287c-0.423-0.127-0.788-0.136-1.094-0.121c-0.307,0.02-0.562,0.067-0.792,0.124
		c-0.459,0.117-0.826,0.271-1.165,0.42c-0.169,0.079-0.33,0.163-0.485,0.249l-0.113,0.056l-0.13,0.073l-0.12,0.074l-0.139,0.083
		c-0.342,0.218-0.626,0.433-0.888,0.655c-0.263,0.219-0.509,0.44-0.743,0.66c-0.93,0.896-1.723,1.808-2.477,2.741
		c-0.382,0.467-0.749,0.938-1.104,1.409c-0.361,0.474-0.704,0.952-1.049,1.437c-0.685,0.961-1.345,1.931-1.979,2.918
		c-0.644,0.981-1.257,1.974-1.862,2.972c-0.598,1.007-1.19,2.014-1.76,3.032c-1.145,2.032-2.232,4.097-3.26,6.192
		c-1.032,2.093-2.005,4.216-2.888,6.385c-0.688,1.697-1.33,3.42-1.844,5.203c-1.368,1.376-2.762,2.719-4.22,3.947
		c-0.861,0.719-1.75,1.404-2.667,1.983c-0.451,0.284-0.92,0.538-1.368,0.718c-0.222,0.09-0.439,0.158-0.628,0.192
		c-0.192,0.039-0.354,0.031-0.412,0.011c-0.07-0.021-0.07-0.02-0.128-0.093c-0.047-0.07-0.104-0.233-0.138-0.432
		c-0.07-0.405-0.048-0.923,0.023-1.434c0.067-0.522,0.177-1.054,0.318-1.577c0.064-0.266,0.144-0.531,0.223-0.793
		c0.045-0.133,0.085-0.262,0.13-0.392c0.03-0.097,0.067-0.203,0.098-0.293c0.725-1.249,1.447-2.493,2.176-3.734
		c0.044-0.067,0.092-0.135,0.141-0.2c1.547-2.174,3.036-4.386,4.473-6.635c1.44-2.24,2.819-4.524,4.156-6.83
		c0.332-0.582,0.662-1.163,0.989-1.744c0.328-0.586,0.65-1.166,0.974-1.76c0.316-0.585,0.632-1.179,0.944-1.77l0.463-0.897
		l0.229-0.454c0.694-1.354-1.865-0.956-2.437-1.013c-0.57-0.057-1.186,0.999-1.186,0.999c-0.334,0.653-0.326,0.598-0.664,1.252
		l-0.826,1.576l-0.839,1.577c-1.118,2.098-2.25,4.184-3.386,6.271c-0.765,1.391-1.538,2.784-2.312,4.17
		c-0.825,1.31-1.673,2.606-2.542,3.887c-0.739,1.085-1.496,2.156-2.261,3.217c-0.204,0.271-0.382,0.52-0.575,0.772
		c-0.193,0.251-0.39,0.497-0.591,0.738c-0.401,0.492-0.82,0.96-1.26,1.406c-0.88,0.896-1.839,1.711-2.862,2.396
		c-1.019,0.682-2.12,1.246-3.232,1.551c-0.556,0.153-1.113,0.236-1.61,0.203c-0.237-0.014-0.469-0.06-0.646-0.128
		c-0.183-0.064-0.307-0.149-0.389-0.241c-0.08-0.091-0.133-0.192-0.161-0.348c-0.029-0.155-0.029-0.355,0.011-0.583
		c0.085-0.454,0.312-0.968,0.598-1.464c0.293-0.497,0.652-0.984,1.05-1.455c0.197-0.231,0.403-0.459,0.612-0.688l0.163-0.169
		l0.169-0.17l0.342-0.343c0.914-0.909,1.863-1.782,2.858-2.573c0.498-0.396,1.002-0.78,1.518-1.139
		c0.519-0.354,1.043-0.688,1.586-0.995c0.787-0.446,1.596-0.826,2.407-1.095c0.895-0.341,1.038-0.774,1.207-1.116
		c0.169-0.341-0.738-1.769-0.857-1.969c-0.096-0.169-0.845,0.071-1.055,0.142c-0.096,0.043-0.211,0.087-0.316,0.127
		c-0.337,0.148-0.665,0.307-0.99,0.474c-0.645,0.332-1.257,0.702-1.846,1.089c-0.586,0.388-1.15,0.8-1.698,1.229
		c-0.55,0.424-1.074,0.869-1.587,1.325c-0.513,0.458-1.013,0.924-1.494,1.399c-0.489,0.476-0.963,0.959-1.431,1.449
		c-0.235,0.257-0.481,0.521-0.725,0.796l-1.803,1.776c-0.546,0.53-1.094,1.063-1.64,1.584c-0.554,0.52-1.111,1.038-1.679,1.518
		c-0.566,0.482-1.142,0.939-1.737,1.323c-0.595,0.374-1.21,0.671-1.785,0.759c-0.293,0.045-0.569,0.041-0.855-0.018
		c-0.137-0.024-0.263-0.063-0.362-0.11c-0.104-0.048-0.181-0.099-0.235-0.155c-0.053-0.05-0.086-0.104-0.12-0.175
		c-0.029-0.069-0.051-0.163-0.065-0.275c-0.02-0.232,0.015-0.531,0.085-0.835c0.155-0.621,0.438-1.28,0.764-1.924
		c0.328-0.637,0.704-1.271,1.105-1.895c0.569-0.888,1.191-1.757,1.839-2.612c2.456-2.407,6.3-7.159,6.813-7.857
		c0.411-0.563,0.348-1.206,0.271-1.383c-0.118-0.477-2.323-0.372-2.323-0.372s-2.471,2.918-2.955,3.527
		c-0.959,1.213-1.906,2.442-2.81,3.711c-0.335,0.457-0.659,0.925-0.975,1.398c-0.113,0.116-0.226,0.231-0.334,0.351
		c-1.313,1.358-2.707,2.65-4.155,3.853c-0.367,0.296-0.73,0.589-1.098,0.857c-0.369,0.271-0.762,0.535-1.154,0.793
		c-0.784,0.512-1.595,0.992-2.419,1.445c-0.82,0.449-1.666,0.863-2.521,1.213c-0.863,0.355-1.743,0.653-2.628,0.869
		c-0.885,0.215-1.784,0.33-2.656,0.29c-0.415-0.02-0.883-0.103-1.331-0.187c-0.446-0.087-0.886-0.2-1.319-0.344
		c-0.864-0.273-1.675-0.666-2.403-1.18c-0.728-0.504-1.359-1.141-1.855-1.866c-0.251-0.358-0.463-0.747-0.646-1.153
		c-0.187-0.395-0.336-0.813-0.448-1.24c-0.119-0.429-0.203-0.863-0.258-1.304c-0.008-0.116-0.021-0.236-0.03-0.353
		c1.055,0.051,2.121,0.048,3.181-0.005c1.371-0.077,2.738-0.245,4.093-0.5c1.356-0.256,2.694-0.606,4.007-1.032
		c1.312-0.428,2.601-0.936,3.852-1.521c1.252-0.582,2.471-1.236,3.652-1.952c1.175-0.723,2.315-1.5,3.416-2.335
		c2.193-1.67,4.227-3.553,6.067-5.598c1.848-2.044,3.509-4.256,4.98-6.602c0.728-1.174,1.399-2.38,2.02-3.626
		c0.621-1.251,1.173-2.533,1.647-3.861c0.471-1.331,0.867-2.698,1.124-4.147c0.127-0.718,0.221-1.45,0.257-2.214
		c0.031-0.759,0.017-1.55-0.11-2.366c-0.12-0.818-0.353-1.677-0.82-2.526c-0.23-0.431-0.524-0.847-0.889-1.219
		c-0.36-0.375-0.792-0.702-1.255-0.953c-0.46-0.254-0.947-0.423-1.427-0.533s-0.947-0.149-1.396-0.155s-0.877,0.034-1.286,0.09
		c-0.104,0.018-0.205,0.034-0.307,0.051l-0.153,0.026l-0.157,0.034c-0.125,0.025-0.155,0.035-0.282,0.064l-0.251,0.056
		c-0.621,0.15-1.237,0.315-1.853,0.49c0.112-0.332,0.22-0.671,0.313-1.011c0.432-1.532,0.73-3.123,0.784-4.798
		c0.011-0.423,0.009-0.846-0.019-1.28c-0.029-0.434-0.08-0.875-0.166-1.323s-0.2-0.904-0.377-1.37
		c-0.174-0.459-0.4-0.924-0.705-1.379c-0.308-0.451-0.693-0.88-1.164-1.235c-0.46-0.355-0.993-0.634-1.535-0.812
		c-0.538-0.181-1.079-0.271-1.6-0.29c-0.518-0.026-1.008,0.008-1.477,0.069c-0.94,0.131-1.784,0.398-2.583,0.699
		c-0.198,0.079-0.388,0.158-0.589,0.24l-0.279,0.123c-0.107,0.049-0.204,0.094-0.299,0.145c-0.395,0.19-0.775,0.396-1.146,0.615
		c-1.477,0.888-2.758,1.991-3.88,3.176c-1.125,1.195-2.098,2.475-2.983,3.795c-0.88,1.32-1.652,2.691-2.369,4.072
		c-0.719,1.388-1.364,2.801-1.957,4.225c-0.598,1.421-1.143,2.864-1.646,4.314c-0.503,1.449-0.972,2.904-1.402,4.371
		c-0.216,0.733-0.427,1.467-0.63,2.199c-0.2,0.736-0.389,1.475-0.58,2.212c-0.375,1.477-0.717,2.961-1.038,4.444
		c-0.228,1.046-0.438,2.091-0.64,3.138c-0.003-0.029-0.008-0.062-0.013-0.092c-0.209-1.403-0.707-10.494-5.285-14.7
		c-0.735-0.676-2.754-2.11-4.348-1.47c-1.731,0.698-1.416,2.405-0.527,2.214c0,0,0.508,0.043,0.424-0.57
		c0,0-0.868-1.142,0.719-1.417c0,0,2.959-0.613,5.941,4.822c0.992,1.806,1.41,4.138,1.326,4.208
		c-0.085,0.07-1.851-2.726-4.117-4.258c-1.918-1.297-3.655-1.031-4.455-0.339c-1.471,1.275-0.934,2.858,0.005,3.065
		c1.489,0.327,1.446-1.365,0.559-1.118c0,0-0.889,0.188-0.55-0.924c0.128-0.421,2.01-3.046,6.409,1.416
		c0.734,0.747,2.209,2.644,2.209,2.866s-1.321-0.878-3.246,0.109c-2.056,1.055-1.517,3.091-0.995,3.855
		c1.418,2.072,3.082,3.87,3.082,10.018S4.549,59.689,4.549,59.689s-0.768,1.416,0.141,2.03c0.888,0.599,1.608-0.551,1.608-0.551
		s1.36-1.797,2.694-5.017c-0.533,3.094,6.236,10.577,16.125,5.654c0.043-0.022,0.087-0.04,0.131-0.061
		c0.9-0.416,7.961-4.483,8.07-4.568c-0.208,0.514-0.386,1.05-0.502,1.637c-0.09,0.439-0.142,0.914-0.069,1.449
		c0.036,0.265,0.108,0.547,0.25,0.82c0.13,0.271,0.327,0.529,0.558,0.73c0.235,0.203,0.494,0.344,0.745,0.445
		c0.255,0.096,0.499,0.152,0.739,0.194c0.474,0.077,0.971,0.067,1.433-0.019c0.469-0.086,0.891-0.249,1.291-0.436
		c0.396-0.188,0.756-0.404,1.1-0.638c0.678-0.464,1.287-0.981,1.868-1.508c0.479-0.431,0.941-0.872,1.393-1.316
		c0,0.016-0.006,0.027-0.009,0.044c-0.07,0.424-0.094,0.892,0.009,1.391c0.093,0.494,0.334,1.01,0.705,1.408
		c0.36,0.399,0.814,0.667,1.255,0.828c0.439,0.165,0.874,0.231,1.29,0.26c0.828,0.044,1.589-0.079,2.315-0.266
		c1.438-0.391,2.72-1.055,3.904-1.827c1.176-0.777,2.245-1.687,3.226-2.667c0.021-0.021,0.045-0.039,0.067-0.063
		c-0.024,0.142-0.048,0.283-0.067,0.427c-0.042,0.313-0.072,0.632-0.079,0.967c-0.012,0.331,0,0.675,0.056,1.047
		c0.063,0.367,0.164,0.77,0.431,1.184c0.129,0.206,0.305,0.409,0.521,0.569c0.218,0.171,0.466,0.288,0.709,0.359
		c0.487,0.138,0.923,0.111,1.299,0.053c0.381-0.064,0.714-0.166,1.026-0.284c0.63-0.242,1.177-0.545,1.707-0.857
		c1.054-0.629,2.013-1.343,2.938-2.064c0.73-0.572,1.433-1.162,2.126-1.76c-0.028,0.446-0.028,0.906,0.028,1.385
		c0.046,0.336,0.112,0.686,0.254,1.032c0.135,0.353,0.352,0.711,0.664,1.001c0.153,0.146,0.331,0.277,0.521,0.373
		c0.179,0.102,0.377,0.169,0.568,0.22c0.365,0.099,0.721,0.114,1.061,0.099h0.003h0.039l0.07-0.002c0.046,0,0.091-0.006,0.124-0.012
		c0.081-0.007,0.158-0.013,0.231-0.023c0.147-0.022,0.288-0.051,0.423-0.085c0.279-0.064,0.539-0.149,0.789-0.241
		c0.508-0.182,0.976-0.413,1.433-0.655c0.914-0.495,1.752-1.082,2.549-1.703c0.38-0.287,0.743-0.587,1.101-0.894
		c0.029,0.784,0.226,1.582,0.638,2.303c0.225,0.398,0.519,0.768,0.868,1.083c0.347,0.311,0.747,0.564,1.174,0.745
		c0.854,0.37,1.784,0.426,2.617,0.311c0.834-0.124,1.601-0.414,2.295-0.772c0.692-0.364,1.32-0.802,1.898-1.275
		c0.29-0.235,0.566-0.479,0.831-0.739c0.13-0.123,0.266-0.253,0.39-0.383l0.371-0.378c0.182-0.186,0.355-0.372,0.531-0.558h0.016
		c0.098,0.011,0.202,0.017,0.294,0.022c0.103,0.005,0.198,0.008,0.322,0.008c0.219,0,0.433-0.017,0.64-0.046
		c0.846-0.109,1.603-0.391,2.286-0.73c0.7-0.338,1.332-0.743,1.938-1.179c0.592-0.434,1.155-0.907,1.691-1.398
		c0.27-0.247,0.534-0.498,0.79-0.755c0.126-0.13,0.257-0.265,0.377-0.395l0.192-0.203c0.065-0.07,0.122-0.13,0.194-0.215
		l0.005-0.012c0.007-0.005,0.011-0.011,0.013-0.016c0.397-0.427,0.815-0.881,1.229-1.311c0.209-0.219,0.412-0.438,0.626-0.652
		c0.212-0.218,0.418-0.433,0.632-0.644c0.429-0.418,0.852-0.844,1.279-1.241c0.438-0.395,0.875-0.784,1.315-1.134
		c0.223-0.169,0.444-0.332,0.665-0.481c0.215-0.145,0.429-0.278,0.631-0.378c0.012-0.006,0.023-0.015,0.035-0.017
		c-0.006,0.002-0.006,0.009-0.006,0.011c-0.141,0.458-0.381,0.979-0.644,1.482c-0.53,1.024-1.158,2.055-1.826,3.061
		c-0.669,1.01-1.36,2.014-2.082,3.001c-0.424,0.6-0.86,1.194-1.3,1.788c-0.287,0.354-0.57,0.708-0.85,1.063
		c-0.395,0.505-0.779,1.016-1.163,1.525c-0.189,0.261-0.38,0.52-0.564,0.784c-0.187,0.259-0.363,0.52-0.556,0.795
		c-0.277,0.334-0.249,0.832,0.072,1.131c0.334,0.315,0.858,0.296,1.174-0.037l0.067-0.075l0.623-0.663
		c0.209-0.225,0.423-0.457,0.628-0.688c0.425-0.456,0.839-0.924,1.248-1.388c0.41-0.468,0.816-0.936,1.217-1.409
		c0.447-0.474,0.904-0.948,1.354-1.413c1.751-1.779,3.559-3.496,5.471-5.019c0.954-0.771,1.94-1.484,2.944-2.099
		c1.015-0.609,2.065-1.135,3.087-1.413c0.257-0.067,0.506-0.118,0.757-0.151c0.043-0.006,0.084-0.012,0.126-0.015
		c-0.033,0.072-0.063,0.149-0.102,0.226c-0.117,0.232-0.246,0.481-0.388,0.727c-0.288,0.5-0.626,1.001-0.971,1.501
		c-0.344,0.505-0.704,1.006-1.078,1.509c-0.363,0.502-0.734,1.01-1.109,1.515c-0.75,1.018-1.51,2.035-2.257,3.087
		c-0.372,0.53-0.744,1.061-1.092,1.625c-0.177,0.287-0.355,0.572-0.516,0.88c-0.169,0.307-0.333,0.626-0.474,1.023
		c-0.062,0.2-0.13,0.423-0.151,0.722c-0.012,0.155-0.006,0.33,0.045,0.549c0.045,0.211,0.165,0.463,0.357,0.655
		c0.187,0.192,0.404,0.299,0.578,0.361c0.187,0.059,0.339,0.08,0.474,0.094c0.132,0.01,0.268,0.002,0.344-0.004
		c0.142-0.01,0.232-0.016,0.34-0.04c0.41-0.061,0.76-0.174,1.099-0.305c0.333-0.129,0.646-0.275,0.953-0.434
		c0.602-0.31,1.162-0.654,1.712-1.016c0.545-0.355,1.069-0.732,1.588-1.121c1.032-0.768,2.016-1.58,2.988-2.412
		c1.935-1.666,3.785-3.409,5.578-5.22C120.029,51.397,120.036,51.183,119.91,51.034z M70.061,49.084
		c1.986-4.093,4.345-8.022,6.85-11.832c0.627-0.953,1.268-1.896,1.92-2.831c0.647-0.936,1.307-1.865,1.979-2.781
		c0.664-0.913,1.353-1.821,2.041-2.709c0.344-0.444,0.697-0.883,1.051-1.312c0.354-0.438,0.709-0.863,1.069-1.286
		c0.363-0.418,0.734-0.823,1.1-1.219c0.369-0.395,0.748-0.775,1.117-1.116c0.192-0.172,0.378-0.333,0.559-0.48
		c0.099-0.072,0.193-0.145,0.285-0.207c-0.073,0.23-0.162,0.463-0.252,0.699c-0.185,0.483-0.394,0.976-0.621,1.469
		c-0.454,0.979-0.972,1.965-1.506,2.938c-0.54,0.979-1.115,1.943-1.697,2.902c-1.187,1.911-2.447,3.784-3.769,5.628
		c-2.644,3.694-5.509,7.265-8.515,10.707c-0.654,0.749-1.313,1.487-1.982,2.223C69.81,49.609,69.935,49.347,70.061,49.084z
		 M14.328,35.32c0.406-1.441,0.835-2.874,1.281-4.3c0.219-0.711,0.445-1.422,0.682-2.127c0.227-0.711,0.466-1.418,0.711-2.121
		c0.491-1.407,1.004-2.801,1.546-4.178c0.543-1.374,1.114-2.736,1.729-4.079c0.606-1.336,1.261-2.65,1.959-3.931
		c0.699-1.274,1.456-2.507,2.269-3.678c0.813-1.173,1.697-2.283,2.661-3.266c0.958-0.986,2.003-1.856,3.125-2.507
		c0.276-0.162,0.559-0.313,0.846-0.448l0.216-0.096l0.229-0.102c0.155-0.065,0.311-0.129,0.464-0.187
		c0.608-0.242,1.215-0.411,1.765-0.502c0.282-0.045,0.541-0.062,0.781-0.056c0.233,0.006,0.442,0.04,0.624,0.089
		c0.354,0.102,0.599,0.275,0.867,0.599c0.256,0.333,0.474,0.835,0.627,1.41c0.078,0.287,0.138,0.593,0.18,0.908
		c0.052,0.32,0.079,0.643,0.103,0.981c0.032,0.666,0.032,1.359-0.009,2.059c-0.04,0.7-0.114,1.404-0.215,2.114
		c-0.115,0.861-0.274,1.722-0.456,2.587c-0.966,0.368-1.915,0.778-2.847,1.226c0.579-0.944,0.984-1.981,1.1-3.11
		c0.22-2.176-1.602-4.383-3.879-4.044c-2.259,0.335-3.416,3.104-2.364,5.033c0.479,0.878,1.478,1.112,2.378,0.808
		c1.005-0.34,1.236-1.511,0.965-2.402c-0.118-0.388-0.586-0.447-0.871-0.217c-0.313,0.255-0.395,0.655-0.32,1.029
		c-0.031,0.014-0.078,0.033-0.155,0.05c-0.252,0.056-0.495-0.006-0.712-0.135c-0.438-0.262-0.469-1.05-0.303-1.472
		c0.494-1.254,2.071-1.266,3.021-0.598c2.813,1.983-1.437,6.309-3.185,7.493c-0.026,0.018-0.05,0.038-0.071,0.058
		c-1.007,0.665-1.978,1.382-2.91,2.145c-2.167,1.759-4.118,3.756-5.865,5.893c-1.744,2.144-3.271,4.444-4.61,6.83
		c-0.557,1.01-1.088,2.03-1.584,3.065C14.177,35.87,14.256,35.594,14.328,35.32z M11.731,50.82c0.184-0.627,0.371-1.257,0.567-1.876
		c0.272-0.869,0.563-1.733,0.865-2.592c0.054-0.042,0.107-0.093,0.161-0.159c0.815-1.005,2.04-1.978,3.197-2.836
		c2.104-1.559,5.569-3.521,6.822-3.858c0.944-0.254,1.885,0.186,2.576,0.907c0.712,0.743,0.907,1.918,0.505,2.853
		c-0.337,0.78-1.277,1.149-2.067,0.941c-0.466-0.124-0.817-0.442-1.099-0.818c-0.313-0.42-0.055-1.765,0.462-1.144
		c0.388,0.468,1.524-0.085,1.094-0.604c-1.248-1.502-3.437,0.245-2.902,1.897c0.557,1.731,2.795,1.979,4.208,1.365
		c1.705-0.74,2.146-2.843,1.361-4.402c-0.484-0.962-1.298-1.508-2.228-1.769c0.672-0.253,1.348-0.49,2.027-0.714
		c3.854-1.268,7.484-3.164,10.275-6.165c1.766-1.897,3.304-4.65,2.439-7.297c-0.462-1.414-1.9-2.594-3.397-2.644
		c-1.641-0.054-3.143,1.107-3.603,2.674c-0.435,1.474-0.032,3.607,1.713,3.945c1.628,0.315,2.687-1.24,2.228-2.696
		c-0.121-0.387-0.553-0.405-0.87-0.217c-0.437,0.258,0.113,0.851-0.308,1.151c-0.095,0.067-0.242,0.094-0.35,0.112
		c-0.314,0.055-0.605-0.049-0.862-0.226c-0.657-0.454-0.468-1.628-0.089-2.174c1.068-1.532,3.147-0.901,4.074,0.395
		c1.521,2.128-0.977,5.082-2.41,6.471c-1.414,1.37-3.077,2.465-4.821,3.369c-2.098,1.083-4.36,1.695-6.557,2.532
		c-3.409,1.3-6.689,3.057-9.563,5.315c-0.281,0.22-0.563,0.448-0.839,0.682c1.194-2.946,2.583-5.799,4.207-8.499
		c2.647-4.402,5.947-8.379,9.917-11.495c0.993-0.778,2.019-1.505,3.088-2.159c1.069-0.669,2.169-1.274,3.304-1.816
		c1.133-0.541,2.295-1.019,3.482-1.433c1.187-0.417,2.396-0.772,3.624-1.06l0.229-0.058c0.035-0.006,0.168-0.035,0.209-0.044
		l0.08-0.018l0.096-0.017c0.063-0.011,0.12-0.023,0.186-0.029c0.242-0.033,0.479-0.05,0.694-0.044
		c0.434,0.006,0.772,0.09,1.009,0.22c0.125,0.067,0.225,0.141,0.324,0.247c0.102,0.103,0.192,0.227,0.28,0.385
		c0.174,0.315,0.315,0.75,0.389,1.243c0.076,0.493,0.095,1.041,0.073,1.604c-0.028,0.565-0.099,1.148-0.191,1.731
		c-0.201,1.179-0.53,2.367-0.934,3.543c-0.815,2.352-1.924,4.646-3.229,6.829c-1.296,2.189-2.797,4.262-4.449,6.21
		c-1.656,1.938-3.469,3.748-5.438,5.369c-0.986,0.813-2.005,1.579-3.06,2.287c-1.061,0.709-2.151,1.371-3.28,1.966
		c-2.244,1.189-4.631,2.132-7.104,2.774c-2.1,0.541-4.255,0.87-6.438,0.976L11.731,50.82z M86.474,55.805
		c-0.043,0.048-0.086,0.094-0.13,0.145c-0.194-0.071-0.352-0.158-0.459-0.257c-0.125-0.112-0.204-0.239-0.26-0.421
		c-0.119-0.367-0.065-0.953,0.102-1.522c0.164-0.578,0.419-1.167,0.712-1.745c0.597-1.154,1.351-2.265,2.185-3.297
		c0.416-0.511,0.858-1.016,1.305-1.444c0.113-0.107,0.223-0.193,0.327-0.275c0.107-0.085,0.212-0.152,0.308-0.203
		c0.102-0.057,0.194-0.097,0.268-0.106c0.059-0.019,0.096-0.019,0.107-0.013c0.012,0.007,0.042,0.048,0.068,0.122
		c0.062,0.143,0.1,0.394,0.089,0.662c-0.002,0.542-0.146,1.156-0.344,1.748c-0.406,1.201-1.054,2.363-1.788,3.463
		C88.219,53.766,87.382,54.815,86.474,55.805z"/>
</g>
</svg>
