<?xml version="1.0" encoding="utf-8"?>
<!-- Generator: Adobe Illustrator 16.0.0, SVG Export Plug-In . SVG Version: 6.00 Build 0)  -->
<!DOCTYPE svg PUBLIC "-//W3C//DTD SVG 1.1//EN" "http://www.w3.org/Graphics/SVG/1.1/DTD/svg11.dtd">
<svg version="1.1" id="Layer_1" xmlns="http://www.w3.org/2000/svg" xmlns:xlink="http://www.w3.org/1999/xlink" x="0px" y="0px"
	 width="27px" height="15.537px" viewBox="0 0 27 15.537" enable-background="new 0 0 27 15.537" xml:space="preserve">
<g>
	<path fill="#C1B385" d="M26.64,6.869c-0.059-0.068-1.479-1.699-3.779-3.342c-3.099-2.214-6.335-3.383-9.36-3.383
		S7.238,1.313,4.14,3.527C1.839,5.17,0.419,6.801,0.361,6.868C-0.12,7.423-0.12,8.259,0.36,8.813
		c0.059,0.068,1.479,1.699,3.779,3.342c3.099,2.214,6.335,3.383,9.36,3.383s6.262-1.169,9.36-3.383
		c2.301-1.643,3.721-3.273,3.778-3.341C27.12,8.259,27.12,7.423,26.64,6.869z M22.487,11.098c-3.01,2.149-6.117,3.286-8.987,3.286
		c-2.869,0-5.978-1.137-8.987-3.286C2.257,9.488,0.839,7.869,0.789,7.869c0.036-0.041,1.458-1.666,3.724-3.285
		c3.01-2.149,6.118-3.286,8.987-3.286c2.87,0,5.978,1.137,8.987,3.286c2.255,1.609,3.674,3.229,3.724,3.229
		C26.175,7.854,24.753,9.479,22.487,11.098z"/>
	<path fill="#C1B385" d="M17.245,7.12c-0.397,0-0.72,0.322-0.72,0.721c0,1.669-1.356,3.026-3.025,3.026
		c-1.668,0-3.025-1.357-3.025-3.026c0-1.668,1.357-3.025,3.025-3.025c0.733,0,1.44,0.266,1.992,0.749
		c0.3,0.262,0.755,0.231,1.017-0.067c0.262-0.3,0.232-0.755-0.067-1.017c-0.813-0.714-1.858-1.105-2.941-1.105
		c-2.463,0-4.466,2.003-4.466,4.466s2.003,4.466,4.466,4.466s4.466-2.003,4.466-4.466C17.966,7.442,17.644,7.12,17.245,7.12z"/>
	<circle fill="#C1B385" cx="13.5" cy="7.841" r="1.44"/>
</g>
</svg>
