<?xml version="1.0" encoding="utf-8"?>
<!-- Generator: Adobe Illustrator 16.0.0, SVG Export Plug-In . SVG Version: 6.00 Build 0)  -->
<!DOCTYPE svg PUBLIC "-//W3C//DTD SVG 1.1//EN" "http://www.w3.org/Graphics/SVG/1.1/DTD/svg11.dtd">
<svg version="1.1" id="Layer_1" xmlns="http://www.w3.org/2000/svg" xmlns:xlink="http://www.w3.org/1999/xlink" x="0px" y="0px"
	 width="12px" height="11.95px" viewBox="0 0 12 11.95" enable-background="new 0 0 12 11.95" xml:space="preserve">
<g>
	<g>
		<path fill="#A2925E" d="M4.541,9.083C2.037,9.083,0,7.046,0,4.541C0,2.037,2.037,0,4.541,0s4.541,2.037,4.541,4.541
			C9.082,7.046,7.045,9.083,4.541,9.083z M4.541,0.742c-2.096,0-3.8,1.704-3.8,3.799c0,2.096,1.704,3.801,3.8,3.801
			s3.8-1.705,3.8-3.801C8.341,2.446,6.637,0.742,4.541,0.742z"/>
	</g>
	<g>
		<path fill="#A2925E" d="M10.887,11.877c-0.297,0-0.575-0.116-0.786-0.326L7.109,8.559C6.877,8.327,6.801,8.04,6.894,7.751
			c0.076-0.234,0.254-0.433,0.4-0.579c0.218-0.218,0.485-0.44,0.82-0.44c0.144,0,0.357,0.044,0.567,0.254l2.992,2.993
			C11.884,10.188,12,10.468,12,10.765s-0.116,0.576-0.326,0.786S11.185,11.877,10.887,11.877z M7.597,7.991
			c0.001,0,0.011,0.018,0.037,0.044l2.991,2.991c0.141,0.14,0.385,0.14,0.524,0c0.07-0.069,0.109-0.163,0.109-0.262
			s-0.039-0.192-0.109-0.263L8.157,7.51C8.131,7.484,8.113,7.474,8.109,7.473C8.105,7.474,8.03,7.484,7.818,7.695
			C7.606,7.907,7.597,7.983,7.597,7.991L7.597,7.991z"/>
	</g>
</g>
</svg>
