<?xml version="1.0" encoding="utf-8"?>
<!-- Generator: Adobe Illustrator 16.0.0, SVG Export Plug-In . SVG Version: 6.00 Build 0)  -->
<!DOCTYPE svg PUBLIC "-//W3C//DTD SVG 1.1//EN" "http://www.w3.org/Graphics/SVG/1.1/DTD/svg11.dtd">
<svg version="1.1" id="Layer_1" xmlns="http://www.w3.org/2000/svg" xmlns:xlink="http://www.w3.org/1999/xlink" x="0px" y="0px"
	 width="23px" height="20.579px" viewBox="0 0 23 20.579" enable-background="new 0 0 23 20.579" xml:space="preserve">
<path fill="#C1B385" d="M4.39,12.782c0.055,0.535,0.344,1.016,0.756,1.34c-0.23,0.272-0.37,0.624-0.37,1.007v1.423
	c0,0.62,0.357,1.153,0.882,1.403c-0.029,0.144-0.046,0.292-0.046,0.444c0,1.201,0.979,2.18,2.18,2.18c1.202,0,2.18-0.979,2.18-2.18
	c0-0.098-0.008-0.195-0.02-0.29h3.585c-0.014,0.095-0.021,0.192-0.021,0.29c0,1.201,0.979,2.18,2.18,2.18s2.18-0.979,2.18-2.18
	c0-1.202-0.979-2.18-2.18-2.18c-0.729,0-1.375,0.36-1.771,0.911H9.563C9.167,16.58,8.521,16.22,7.791,16.22
	c-0.7,0-1.324,0.333-1.723,0.848c-0.188-0.096-0.315-0.29-0.315-0.516v-1.423c0-0.319,0.26-0.578,0.58-0.578
	c0.001,0,0.002-0.002,0.004-0.002c0.003,0,0.006,0.002,0.009,0.002h11.429c0.945,0,1.924-0.701,2.229-1.597l2.904-8.526
	c0.164-0.482,0.107-0.969-0.153-1.335c-0.262-0.365-0.704-0.576-1.214-0.576H5.225c-0.315,0-0.611,0.081-0.867,0.231L4.126,0.44
	C4.101,0.191,3.892,0,3.64,0h-3.15C0.219,0,0,0.22,0,0.489C0,0.76,0.219,0.978,0.489,0.978h2.708L4.39,12.782z M15.695,17.197
	c0.663,0,1.201,0.539,1.201,1.202c0,0.662-0.538,1.201-1.201,1.201s-1.201-0.539-1.201-1.201
	C14.494,17.736,15.032,17.197,15.695,17.197z M7.791,17.197c0.663,0,1.202,0.539,1.202,1.202c0,0.662-0.539,1.201-1.202,1.201
	c-0.662,0-1.201-0.539-1.201-1.201C6.59,17.736,7.129,17.197,7.791,17.197z M4.512,4.295c-0.022-0.217,0.041-0.42,0.177-0.57
	c0.134-0.148,0.324-0.229,0.536-0.229H21.54c0.192,0,0.342,0.059,0.419,0.166c0.077,0.108,0.085,0.269,0.022,0.452l-2.904,8.526
	c-0.169,0.497-0.777,0.933-1.303,0.933H6.346c-0.484,0-0.935-0.407-0.983-0.889L4.512,4.295z"/>
</svg>
