<?xml version="1.0" encoding="utf-8"?>
<!-- Generator: Adobe Illustrator 16.0.0, SVG Export Plug-In . SVG Version: 6.00 Build 0)  -->
<!DOCTYPE svg PUBLIC "-//W3C//DTD SVG 1.1//EN" "http://www.w3.org/Graphics/SVG/1.1/DTD/svg11.dtd">
<svg version="1.1" id="Layer_1" xmlns="http://www.w3.org/2000/svg" xmlns:xlink="http://www.w3.org/1999/xlink" x="0px" y="0px"
	 width="26px" height="21.324px" viewBox="0 0 26 21.324" enable-background="new 0 0 26 21.324" xml:space="preserve">
<path fill="#A2925E" d="M8.364,21.324c-2.888,0-5.698-0.823-8.13-2.384c-0.199-0.128-0.284-0.376-0.205-0.599
	c0.08-0.223,0.306-0.365,0.538-0.332c0.374,0.043,0.766,0.066,1.164,0.066c1.789,0,3.497-0.471,5.004-1.368
	c-1.822-0.485-3.316-1.868-3.909-3.723c-0.055-0.17-0.015-0.357,0.104-0.491c0.119-0.135,0.295-0.195,0.477-0.162
	c0,0.001,0.001,0.001,0.002,0.001C1.94,11.304,1.002,9.596,1.002,7.714c0-0.18,0.095-0.378,0.25-0.469
	c0.152-0.092,0.346-0.126,0.502-0.039c0.137,0.075,0.277,0.143,0.42,0.204C1.451,6.448,1.045,5.266,1.045,4.024
	c0-0.996,0.264-1.978,0.763-2.836C1.893,1.045,2.041,0.95,2.207,0.938c0.165-0.017,0.329,0.057,0.434,0.186
	c2.381,2.922,5.839,4.766,9.564,5.125c-0.022-0.201-0.033-0.405-0.033-0.613C12.172,2.527,14.699,0,17.805,0
	c1.457,0,2.865,0.568,3.907,1.571c1-0.225,1.95-0.603,2.831-1.124c0.182-0.106,0.41-0.091,0.575,0.038
	c0.165,0.132,0.231,0.352,0.168,0.552c-0.206,0.646-0.526,1.245-0.941,1.771c0.32-0.104,0.635-0.224,0.941-0.36
	c0.206-0.092,0.448-0.036,0.594,0.136c0.146,0.173,0.161,0.42,0.036,0.608c-0.668,1.006-1.496,1.887-2.464,2.622
	c0.003,0.138,0.005,0.276,0.005,0.414C23.457,13.648,17.812,21.324,8.364,21.324z M2.573,19.06c1.813,0.821,3.781,1.25,5.791,1.25
	c8.812,0,14.077-7.16,14.077-14.082c0-0.214-0.004-0.429-0.013-0.64c-0.008-0.171,0.07-0.334,0.209-0.435
	c0.496-0.358,0.953-0.756,1.369-1.191c-0.456,0.116-0.923,0.204-1.396,0.261c-0.243,0.036-0.465-0.112-0.542-0.339
	c-0.078-0.227,0.014-0.477,0.22-0.6c0.548-0.329,1.018-0.763,1.384-1.271c-0.652,0.269-1.33,0.473-2.028,0.609
	c-0.174,0.036-0.349-0.023-0.469-0.15c-0.867-0.926-2.096-1.458-3.37-1.458c-2.546,0-4.617,2.073-4.617,4.62
	c0,0.365,0.041,0.718,0.121,1.047c0.037,0.155-0.001,0.32-0.104,0.443c-0.101,0.124-0.251,0.209-0.416,0.184
	C8.8,7.107,5.045,5.317,2.368,2.362C2.166,2.892,2.061,3.455,2.061,4.024c0,1.548,0.769,2.984,2.055,3.843
	c0.188,0.126,0.271,0.361,0.202,0.577C4.249,8.66,4.039,8.799,3.819,8.798C3.23,8.78,2.644,8.667,2.087,8.467
	c0.323,1.889,1.753,3.399,3.635,3.775c0.23,0.045,0.399,0.242,0.409,0.478c0.009,0.234-0.145,0.444-0.37,0.509
	c-0.519,0.146-1.079,0.206-1.652,0.197c0.773,1.467,2.295,2.426,3.997,2.455c0.215,0.005,0.404,0.144,0.472,0.347
	c0.068,0.204,0.001,0.429-0.168,0.562C6.71,18.121,4.707,18.898,2.573,19.06z"/>
</svg>
