<?xml version="1.0" encoding="utf-8"?>
<!-- Generator: Adobe Illustrator 16.0.0, SVG Export Plug-In . SVG Version: 6.00 Build 0)  -->
<!DOCTYPE svg PUBLIC "-//W3C//DTD SVG 1.1//EN" "http://www.w3.org/Graphics/SVG/1.1/DTD/svg11.dtd">
<svg version="1.1" id="Layer_1" xmlns="http://www.w3.org/2000/svg" xmlns:xlink="http://www.w3.org/1999/xlink" x="0px" y="0px"
	 width="30px" height="9.577px" viewBox="0 0 30 9.577" enable-background="new 0 0 30 9.577" xml:space="preserve">
<g>
	<g>
		<polygon fill="#0B67B1" points="13.005,9.415 10.558,9.415 12.088,0.013 14.536,0.013 		"/>
		<path fill="#0B67B1" d="M8.498,0.013L6.164,6.479L5.888,5.087v0.001L5.064,0.859c0,0-0.1-0.847-1.161-0.847H0.045L0,0.172
			c0,0,1.18,0.245,2.561,1.075l2.127,8.168h2.551l3.895-9.402H8.498z"/>
		<path fill="#0B67B1" d="M27.753,9.415H30l-1.959-9.402h-1.968c-0.909,0-1.131,0.701-1.131,0.701l-3.65,8.701h2.551l0.511-1.396
			h3.112L27.753,9.415z M25.06,6.09l1.285-3.52l0.725,3.52H25.06z"/>
		<path fill="#0B67B1" d="M21.483,2.273l0.349-2.019c0,0-1.078-0.41-2.201-0.41c-1.215,0-4.1,0.531-4.1,3.113
			c0,2.429,3.386,2.459,3.386,3.734S15.88,7.74,14.878,6.936l-0.364,2.11c0,0,1.093,0.531,2.764,0.531c1.67,0,4.19-0.865,4.19-3.219
			c0-2.444-3.416-2.673-3.416-3.735S20.436,1.696,21.483,2.273z"/>
	</g>
	<path fill="#F9A533" d="M5.888,5.088L5.064,0.859c0,0-0.1-0.847-1.161-0.847H0.045L0,0.172c0,0,1.854,0.385,3.634,1.824
		C5.334,3.372,5.888,5.088,5.888,5.088z"/>
</g>
</svg>
