<?xml version="1.0" encoding="utf-8"?>
<!-- Generator: Adobe Illustrator 16.0.0, SVG Export Plug-In . SVG Version: 6.00 Build 0)  -->
<!DOCTYPE svg PUBLIC "-//W3C//DTD SVG 1.1//EN" "http://www.w3.org/Graphics/SVG/1.1/DTD/svg11.dtd">
<svg version="1.1" id="Layer_1" xmlns="http://www.w3.org/2000/svg" xmlns:xlink="http://www.w3.org/1999/xlink" x="0px" y="0px"
	 width="23px" height="20.623px" viewBox="0 0 23 20.623" enable-background="new 0 0 23 20.623" xml:space="preserve">
<g>
	<g>
		<g>
			<path fill="#C1B385" d="M11.5,20.623L11.5,20.623c-0.133,0-0.261-0.054-0.354-0.148l-8.252-8.376C1.028,10.233,0,8.013,0,5.848
				C0,2.35,2.323,0,5.78,0c2.973,0,4.151,1.321,5.72,3.164C13.067,1.321,14.245,0,17.218,0C20.677,0,23,2.35,23,5.848
				c0,2.165-1.028,4.387-2.896,6.254l-8.252,8.373C11.76,20.569,11.633,20.623,11.5,20.623z M5.78,0.993
				c-2.908,0-4.787,1.905-4.787,4.854c0,1.899,0.925,3.872,2.605,5.552l7.901,8.02l7.899-8.017c1.684-1.683,2.607-3.655,2.607-5.555
				c0-2.949-1.88-4.854-4.789-4.854c-2.568,0-3.502,1.098-5.05,2.918l-0.291,0.341c-0.095,0.11-0.232,0.174-0.377,0.174l0,0
				c-0.146,0-0.284-0.063-0.378-0.174l-0.289-0.339C9.285,2.092,8.351,0.993,5.78,0.993z"/>
		</g>
	</g>
</g>
</svg>
