<?xml version="1.0" encoding="utf-8"?>
<!-- Generator: Adobe Illustrator 16.0.0, SVG Export Plug-In . SVG Version: 6.00 Build 0)  -->
<!DOCTYPE svg PUBLIC "-//W3C//DTD SVG 1.1//EN" "http://www.w3.org/Graphics/SVG/1.1/DTD/svg11.dtd">
<svg version="1.1" id="Layer_1" xmlns="http://www.w3.org/2000/svg" xmlns:xlink="http://www.w3.org/1999/xlink" x="0px" y="0px"
	 width="24px" height="17.156px" viewBox="0 0 24 17.156" enable-background="new 0 0 24 17.156" xml:space="preserve">
<g>
	<polygon fill="#A2925E" points="8.937,13.01 16.464,8.589 8.937,4.168 	"/>
	<path fill="#A2925E" d="M19.532,0H4.466C2.921,0,0,0.934,0,4.468v8.221c0,1.546,0.934,4.468,4.466,4.468h15.066
		c1.546,0,4.468-0.934,4.468-4.468V4.468C24,2.922,23.066,0,19.532,0z M22.991,12.688c0,3.4-3.318,3.458-3.46,3.459H4.466
		c-3.398,0-3.456-3.318-3.457-3.459V4.468c0-3.4,3.316-3.458,3.457-3.459h15.066c3.4,0,3.457,3.318,3.459,3.459V12.688z"/>
</g>
</svg>
